<?xml version="1.0" encoding="UTF-8" standalone="no"?><!DOCTYPE svg PUBLIC "-//W3C//DTD SVG 1.1//EN" "http://www.w3.org/Graphics/SVG/1.1/DTD/svg11.dtd"><svg width="100%" height="100%" viewBox="0 0 52 50" version="1.1" xmlns="http://www.w3.org/2000/svg" xmlns:xlink="http://www.w3.org/1999/xlink" xml:space="preserve" style="fill-rule:evenodd;clip-rule:evenodd;stroke-miterlimit:2.613;"><rect id="Artboard1" x="0" y="0" width="51.59" height="49.418" style="fill:none;"/><path d="M44.485,16.791c-0.007,0.373 0.109,4.105 -0.986,5.419c-1.094,1.314 -1.533,2.901 -0.93,4.653c0.602,1.752 0.93,3.887 0.711,4.927c-0.219,1.04 -1.915,2.518 -1.915,2.518c0,0 2.408,-0.876 2.791,-2.792c0.383,-1.916 -0.766,-4.16 -0.602,-5.31c0.164,-1.149 -0.657,-1.806 0.766,-2.573c1.424,-0.766 1.916,-1.916 1.916,-2.791c0,-0.876 1.478,-3.504 1.478,-3.504c0,0 -1.095,-0.602 -3.229,-0.547"/><path d="M36.821,16.736c-0.067,-0.512 -0.493,3.339 0.328,4.817c0.822,1.478 0.931,3.723 2.245,5.091c1.314,1.369 2.08,2.792 2.08,3.613c0,0.821 -0.329,2.19 -0.329,2.19c0,0 1.479,-1.971 0.767,-3.887c-0.712,-1.916 -2.112,-3.057 -2.534,-3.992c-0.422,-0.934 -1.243,-3.234 -1.243,-3.836c0,-0.602 -0.055,-0.657 0.383,-1.752c0.438,-1.094 1.204,-2.244 1.204,-2.244l-2.901,0Z" style="stroke:#000;stroke-width:0.12px;"/><path d="M26.045,48.142c13.07,0 23.731,-10.66 23.731,-23.731c0,-13.07 -10.661,-23.731 -23.731,-23.731c-13.071,0 -23.731,10.661 -23.731,23.731c0,13.071 10.66,23.731 23.731,23.731"/><path d="M26.045,2.075c12.334,0 22.337,10.002 22.337,22.336c0,12.335 -10.003,22.337 -22.337,22.337c-12.334,0 -22.337,-10.002 -22.337,-22.337c0,-12.334 10.003,-22.336 22.337,-22.336" style="fill:#eb7829;"/><g><clipPath id="_clip1"><path d="M3.708,24.411c0,12.335 10.003,22.337 22.337,22.337c12.334,0 22.337,-10.002 22.337,-22.337c0,-12.334 -10.003,-22.337 -22.337,-22.337c-12.334,0 -22.337,10.003 -22.337,22.337Z"/></clipPath><g clip-path="url(#_clip1)"><path d="M45.696,35.392c-3.876,6.868 -11.239,11.506 -19.685,11.506c-12.474,0 -22.589,-10.115 -22.589,-22.588c0,-5.53 1.989,-10.595 5.29,-14.522c-0.112,0.968 -0.171,1.952 -0.171,2.95c0,14.07 11.41,25.481 25.481,25.481c4.207,0 8.176,-1.021 11.674,-2.827" style="fill:#cc6d22;"/><path d="M27.324,3.112c6.974,0.18 12.634,3.65 12.634,7.34c0,3.689 -5.658,6.776 -12.634,6.682c-15.173,-0.207 -18.194,-14.492 0,-14.022" style="fill:#f9a058;"/><path d="M37.947,10.624l0,1.326c-6.704,4.672 -17.327,13.899 -15.976,22.788c1.969,0.319 4.097,0.452 6.387,0.329c3.794,-0.204 6.962,-0.662 9.589,-1.244l0,1.105c-2.645,0.577 -5.797,1.027 -9.534,1.228c-2.203,0.118 -4.26,0.008 -6.175,-0.272c1.87,5.806 8.006,7.91 12.087,8.449c0.991,0.131 1.856,0.169 2.509,0.146c0.563,-0.02 0.91,-0.064 0.977,-0.117c0.051,-0.04 0.072,0.009 0.073,0.092l0.063,0.08l-0.063,-0.08c0.001,0.112 -0.033,0.288 -0.077,0.391l0.14,-0.067l0,0.662c-0.283,0.067 -0.648,0.112 -1.075,0.127c-0.707,0.026 -1.635,-0.015 -2.688,-0.154c-4.489,-0.593 -11.311,-2.985 -13.142,-9.729c-0.885,-0.166 -1.737,-0.369 -2.557,-0.601c0.478,6.698 2.169,11.596 3.312,12.658l-0.743,0.798c-1.259,-1.17 -3.158,-6.548 -3.65,-13.785c-0.632,-0.206 -1.243,-0.429 -1.833,-0.665c-0.545,3.464 -2.076,6.268 -5.198,7.592l-0.422,-1.003c2.799,-1.188 4.161,-3.777 4.624,-7.01c-5.628,-2.497 -9.243,-6.182 -10.945,-7.918c-0.483,-0.492 -0.586,-0.792 -0.681,-0.792l0,-1.093c0.359,0 0.775,0.425 1.458,1.121c1.619,1.651 5.023,5.121 10.293,7.536c0.641,-8.232 -3.696,-19.783 -5.143,-23.638l-0.124,-0.331l1.02,-0.38l0.124,0.331c1.494,3.976 5.954,15.859 5.136,24.459c0.524,0.217 1.066,0.422 1.624,0.613c-0.144,-3.196 -0.008,-6.713 0.572,-10.365c1.199,-7.549 4.272,-15.703 10.641,-22.828l0.811,0.726c-6.208,6.945 -9.205,14.902 -10.376,22.273c-0.595,3.743 -0.724,7.324 -0.569,10.541c0.778,0.232 1.587,0.436 2.426,0.608c-1.102,-9.36 9.712,-18.77 16.536,-23.516c0.193,-0.134 0.382,-0.264 0.569,-0.391m0,34.816l0,-0.662l0.139,-0.066l-0.139,-0.178l0.139,0.178l0.599,-0.287c0.149,0.311 0.076,0.578 -0.199,0.795c-0.111,0.087 -0.295,0.162 -0.539,0.22m4.779,-12.987l0,1.138c-1.366,0.48 -2.952,0.939 -4.779,1.337l0,-1.105c1.852,-0.41 3.434,-0.882 4.779,-1.37m-0.194,-24.09c0.061,0.052 0.133,0.133 0.194,0.216l0,0.34c-0.15,0.091 -0.526,0.333 -1.142,0.689c-0.908,0.527 -2.152,1.309 -3.583,2.304l-0.054,0.038l0,-1.326c1.211,-0.824 2.277,-1.488 3.091,-1.959c0.739,-0.428 1.328,-0.702 1.688,-0.807l0,0.505l-0.194,0Zm0.194,25.228l0,-1.138c4.903,-1.78 6.633,-3.776 6.642,-3.785l0.811,0.726c-0.009,0.01 -1.971,2.27 -7.453,4.197m0,-25.012c0.042,0.056 0.078,0.114 0.102,0.164l0.092,-0.38l-0.194,0l0,-0.505c0.149,-0.044 0.258,-0.058 0.322,-0.043l0.005,0.002c0.288,0.07 0.433,0.248 0.433,0.546l-0.566,0l-0.089,0.384c0.041,0.086 0.043,0.145 -0.03,0.129l0,0.002c-0.005,-0.001 -0.029,0.013 -0.075,0.041l0,-0.34Z" style="fill-rule:nonzero;"/></g></g></svg>