<?xml version="1.0" encoding="UTF-8" standalone="no"?><!DOCTYPE svg PUBLIC "-//W3C//DTD SVG 1.1//EN" "http://www.w3.org/Graphics/SVG/1.1/DTD/svg11.dtd"><svg width="100%" height="100%" viewBox="0 0 52 50" version="1.1" xmlns="http://www.w3.org/2000/svg" xmlns:xlink="http://www.w3.org/1999/xlink" xml:space="preserve" style="fill-rule:evenodd;clip-rule:evenodd;stroke-linejoin:round;stroke-miterlimit:1.41421;"><rect id="Artboard1" x="0" y="0" width="51.59" height="49.418" style="fill:none;"/><g><clipPath id="_clip1"><path d="M3.722,23.366c0,0 -5.984,13.072 -6.716,12.736c0,0 -0.4,3.702 0.428,6.807c0.827,3.105 1.792,4.569 1.792,4.569c0,0 3.036,6.025 2.934,7.886c-0.103,1.861 -0.076,3.441 -1.043,4.361c-0.967,0.921 -1.911,4.919 -1.911,4.919l21.757,5.325c0,0 1.962,-7.263 3.788,-8.276c1.827,-1.012 3.418,-1.51 6.811,-4.455c3.393,-2.945 6.931,-6.505 7.571,-8.052c0.64,-1.547 1.028,-4.777 1.028,-4.777l-1.023,-12.912c0,0 -9.833,-8.766 -19.31,-8.84c-0.427,-0.003 -0.848,-0.005 -1.263,-0.005c-8.798,0 -14.843,0.714 -14.843,0.714Z"/></clipPath><g clip-path="url(#_clip1)"><path d="M18.669,42.166c0.269,-0.368 0.974,1.481 4.211,2.179c3.236,0.698 4.584,0.488 5.261,0.338c0.676,-0.15 3.436,-3.269 3.71,-3.457c0.273,-0.188 1.739,-3.458 1.739,-4.134c0,-0.677 -0.526,-2.969 -0.526,-2.969c0,0 1.419,-0.171 1.842,0c0.423,0.171 0.713,-2.48 0.187,-2.706c-0.526,-0.225 -8.464,0.602 -10.535,1.26c-2.07,0.658 -4.313,1.346 -5.889,9.489" style="fill:#9d5d0a;"/></g><path d="M22.345,28.021c0.669,0.949 1.454,1.362 2.326,1.696l-0.044,-0.368c-0.722,-0.11 -1.517,-0.658 -2.282,-1.328" style="fill:#fff;"/><path d="M18.205,34.755c-1.909,-0.388 -3.859,-0.412 -5.797,-0.175l-1.72,0.21l1.076,-1.358c0.119,-0.15 0.245,-0.292 0.375,-0.426c-0.662,0.082 -1.32,0.211 -1.974,0.394l-1.088,0.304l0.197,-1.113c0.05,-0.284 0.113,-0.564 0.188,-0.841c-0.293,0.385 -0.564,0.775 -0.807,1.154l-1.341,2.087l0.031,-2.481c0.046,-3.705 0.99,-7.39 2.877,-10.581c-1.262,-0.347 -2.612,-0.992 -3.397,-1.872c-1.136,-1.273 -1.731,-4.215 -1.91,-5.898l-0.109,-1.018l8.779,2.244l1.83,-1.133c-0.889,-0.341 -1.72,-0.834 -2.449,-1.451l-2.262,-1.914l2.885,0.678c0.612,0.144 1.531,0.299 2.448,0.378c-1.152,-0.779 -2.16,-1.743 -3.034,-2.899l-1.692,-2.237l2.553,1.16c1.311,0.595 2.674,1.095 4.071,1.451c-1.411,-1.043 -2.665,-2.304 -3.813,-3.657l-3.297,-3.888l4.235,2.837c5.768,3.862 12.271,5.833 18.982,7.308l8.267,-4.954l0.217,0.957c0.891,3.923 0.487,8.388 -3.284,10.157c3.462,2.429 5.975,5.465 6.552,9.933l0.167,1.289l-1.176,-0.554c-1.151,-0.543 -2.32,-0.89 -3.527,-1.088c1.012,1.145 1.514,2.622 1.904,4.307l0.29,1.252l-1.215,-0.419c-1.14,-0.393 -2.402,-0.976 -3.685,-1.359c0.208,0.205 0.425,0.438 0.663,0.701l1.879,2.083l-2.644,-0.935c-1.76,-0.623 -4.093,-0.197 -6.024,0.113l0.428,4.432l-0.008,0.072c-0.16,1.498 -0.731,2.818 -1.761,3.927l-0.395,0.425l-0.647,-0.392c0.102,0.397 0.253,0.784 0.437,1.16l0.544,1.106l-1.23,-0.082c-1.518,-0.102 -3.034,-0.429 -4.468,-0.961c0.121,0.167 0.246,0.329 0.369,0.483l1.391,1.738l-2.142,-0.609c-1.486,-0.424 -2.811,-1.041 -3.972,-1.937l0.181,0.864l-1.295,-0.613c-1.341,-0.636 -2.465,-1.824 -2.571,-3.361l-0.007,-0.102l0.925,-4.896Z"/><path d="M17.181,13.995l-3.479,2.154l-8.08,-2.065c0,0 0.432,4.04 1.734,5.499c1.302,1.46 4.008,1.865 4.008,1.865c-2.375,3.565 -3.264,7.571 -3.308,11.071c0.99,-1.541 2.279,-3.047 3.65,-3.91c-0.919,1.398 -1.496,2.767 -1.732,4.106c1.642,-0.459 3.265,-0.588 4.877,-0.513c-1.142,0.36 -1.949,0.94 -2.529,1.672c2.388,-0.292 4.69,-0.191 6.885,0.384l-1.21,5.447c0.083,1.21 0.986,2.206 2.166,2.766l-0.366,-1.754c1.495,1.856 3.339,2.828 5.342,3.398c-0.635,-0.793 -1.15,-1.594 -1.395,-2.413c1.83,0.973 3.939,1.592 6.098,1.737c-0.447,-0.909 -0.695,-1.845 -0.653,-2.824l1.374,0.833c0.949,-1.022 1.436,-2.208 1.576,-3.518l-0.487,-5.03c2.346,-0.342 4.925,-0.93 7.035,-0.183c-1.151,-1.276 -1.671,-1.778 -3.789,-2.125c2.595,-0.64 5.21,0.819 7.571,1.634c-0.514,-2.224 -1.221,-4.3 -3.702,-5.39c2.088,0.028 4.19,0.361 6.321,1.366c-0.629,-4.875 -3.702,-7.877 -7.43,-10.221c4.633,-1.136 5.086,-5.788 4.174,-9.802l-7.666,4.594c-6.888,-1.499 -13.552,-3.488 -19.501,-7.472c2.018,2.379 4.271,4.346 7.042,5.403c-2.577,-0.111 -5.286,-0.795 -8.136,-2.09c1.457,1.928 3.194,3.15 5.103,3.933c-1.238,0.337 -3.709,0.073 -5.248,-0.289c1.18,0.998 2.521,1.541 3.755,1.737" style="fill:#ed8c0e;"/><clipPath id="_clip2"><path d="M21.707,10.704c-2.577,-0.111 -5.286,-0.794 -8.136,-2.089c1.457,1.927 3.194,3.149 5.103,3.932c-1.238,0.337 -3.709,0.073 -5.248,-0.289c1.18,0.998 2.521,1.541 3.755,1.737l-3.479,2.154l-8.08,-2.065c0,0 0.432,4.04 1.734,5.499c1.302,1.46 4.008,1.865 4.008,1.865c-2.375,3.565 -3.264,7.572 -3.308,11.071c0.99,-1.541 2.279,-3.047 3.65,-3.91c-0.919,1.398 -1.496,2.767 -1.732,4.106c1.642,-0.459 3.265,-0.588 4.877,-0.513c-1.142,0.36 -1.949,0.94 -2.529,1.672c2.389,-0.292 4.69,-0.191 6.885,0.384l-1.21,5.447c0.083,1.21 0.986,2.206 2.166,2.766l-0.366,-1.754c1.495,1.856 3.339,2.828 5.342,3.398c-0.635,-0.793 -1.15,-1.594 -1.395,-2.414c1.83,0.974 3.939,1.593 6.098,1.738c-0.447,-0.909 -0.695,-1.846 -0.653,-2.824l1.374,0.833c0.949,-1.022 1.436,-2.208 1.576,-3.519l-0.487,-5.028c2.346,-0.343 4.925,-0.93 7.035,-0.184c-1.151,-1.276 -1.671,-1.778 -3.789,-2.125c2.595,-0.64 5.21,0.819 7.571,1.634c-0.514,-2.224 -1.22,-4.3 -3.702,-5.39c2.088,0.028 4.19,0.361 6.321,1.366c-0.629,-4.875 -3.702,-7.877 -7.43,-10.221c4.633,-1.136 5.086,-5.788 4.174,-9.802l-7.666,4.594c-6.888,-1.499 -13.552,-3.488 -19.501,-7.472c2.018,2.379 4.271,4.346 7.042,5.403Z"/></clipPath><g clip-path="url(#_clip2)"><path d="M36.86,16.987c0,0 3.201,-2.256 3.703,-4.14c0.501,-1.885 1.516,-4.889 1.516,-4.889c0,0 1.4,4.04 0.235,5.846c-1.166,1.808 -1.973,3.967 -3.323,4.21c-1.349,0.243 -2.131,-1.027 -2.131,-1.027" style="fill:#f6adcd;"/></g><clipPath id="_clip3"><path d="M40.563,12.846c-0.502,1.885 -3.703,4.141 -3.703,4.141c0,0 0.387,0.629 1.086,0.917c4.248,-1.222 4.754,-5.557 3.955,-9.411c-0.314,0.95 -0.967,2.959 -1.338,4.353Z"/></clipPath><g clip-path="url(#_clip3)"><path d="M41.991,8.959c0,0 -0.393,4 -0.791,5.142c-0.397,1.142 -2.255,3.88 -2.255,3.88l-2.314,-0.941c0,0 3.531,-5.421 3.303,-5.931c-0.229,-0.51 2.057,-2.15 2.057,-2.15" style="fill:#cb8da6;"/></g><g><clipPath id="_clip4"><path d="M21.707,10.704c-2.577,-0.111 -5.286,-0.794 -8.136,-2.089c1.457,1.927 3.194,3.149 5.103,3.932c-1.238,0.337 -3.709,0.073 -5.248,-0.289c1.18,0.998 2.521,1.541 3.755,1.737l-3.479,2.154l-8.08,-2.065c0,0 0.432,4.04 1.734,5.499c1.302,1.46 4.008,1.865 4.008,1.865c-2.375,3.565 -3.264,7.572 -3.308,11.071c0.99,-1.541 2.279,-3.047 3.65,-3.91c-0.919,1.398 -1.496,2.767 -1.732,4.106c1.642,-0.459 3.265,-0.588 4.877,-0.513c-1.142,0.36 -1.949,0.94 -2.529,1.672c2.389,-0.292 4.69,-0.191 6.885,0.384l-1.21,5.447c0.083,1.21 0.986,2.206 2.166,2.766l-0.366,-1.754c1.495,1.856 3.339,2.828 5.342,3.398c-0.635,-0.793 -1.15,-1.594 -1.395,-2.414c1.83,0.974 3.939,1.593 6.098,1.738c-0.447,-0.909 -0.695,-1.846 -0.653,-2.824l1.374,0.833c0.949,-1.022 1.436,-2.208 1.576,-3.519l-0.487,-5.028c2.346,-0.343 4.925,-0.93 7.035,-0.184c-1.151,-1.276 -1.671,-1.778 -3.789,-2.125c2.595,-0.64 5.21,0.819 7.571,1.634c-0.514,-2.224 -1.22,-4.3 -3.702,-5.39c2.088,0.028 4.19,0.361 6.321,1.366c-0.629,-4.875 -3.702,-7.877 -7.43,-10.221c4.633,-1.136 5.086,-5.788 4.174,-9.802l-7.666,4.594c-6.888,-1.499 -13.552,-3.488 -19.501,-7.472c2.018,2.379 4.271,4.346 7.042,5.403Z"/></clipPath><g clip-path="url(#_clip4)"><path d="M34.186,15.436c0,0 4.121,3.857 4.313,4.394c0.192,0.538 0.25,2.746 0.25,2.746c0,0 -3.577,1.073 -4.217,1.536c-0.641,0.464 3.637,-0.057 4.524,0.06c0.887,0.117 1.219,0.085 1.219,0.085c0,0 4.555,3.023 5.193,4.19c0.639,1.166 -0.922,-5.878 -2.051,-7.582c-1.129,-1.705 -5.751,-3.342 -5.668,-3.479c0.083,-0.136 -3.563,-1.95 -3.563,-1.95" style="fill:#9d5d0a;"/><path d="M21.587,27.45l-0.254,-0.046c-2.242,-0.019 -6.2,0.374 -8.763,2.211c1.707,-0.047 4.453,1.332 5.788,1.849c-1.58,0.482 -2.953,1.218 -4.079,2.26l4.928,0.534l-2.664,7.553l9.445,4.01c0,0 9.218,-1.09 9.238,-1.452c0.02,-0.362 0.771,-6.068 0.392,-7.104c-0.379,-1.035 -0.403,-4.861 -0.403,-4.861c-1.223,-0.849 -2.584,-1.425 -4.024,-1.849c1.285,-0.56 6.748,-1.98 8.006,-2.055c-1.77,-1.422 -8.794,-2.413 -10.761,-2.24l-3.329,1.967l-3.52,-0.777Z" style="fill:#fff0c3;"/></g></g><clipPath id="_clip5"><path d="M40.626,24.228c-2.575,-0.422 -5.378,-0.348 -7.727,0.411c1.678,0.592 3.065,1.485 4.024,2.817c-1.556,-0.019 -3.119,0.091 -4.701,0.558l-3.995,3.577l-5.398,-0.298l-2.933,-3.477c-1.941,0.059 -4.148,0.327 -6.125,1.017c-0.213,-1.284 -0.109,-2.551 0.21,-3.806c-1.514,0.533 -2.739,1.463 -3.848,2.554c-0.02,-1.74 0.248,-3.53 0.864,-5.381l-0.205,0.163c-1.947,3.325 -2.696,6.953 -2.736,10.156c0.99,-1.541 2.279,-3.047 3.65,-3.91c-0.919,1.398 -1.496,2.767 -1.732,4.106c1.642,-0.459 3.265,-0.588 4.877,-0.513c-1.142,0.36 -1.949,0.94 -2.529,1.672c2.389,-0.292 4.69,-0.191 6.885,0.384l-1.21,5.447c0.083,1.21 0.986,2.206 2.166,2.766l-0.366,-1.754c1.495,1.856 3.339,2.828 5.342,3.398c-0.635,-0.793 -1.15,-1.594 -1.395,-2.414c1.83,0.974 3.939,1.593 6.098,1.738c-0.447,-0.909 -0.695,-1.846 -0.653,-2.824l1.374,0.833c0.949,-1.022 1.436,-2.208 1.576,-3.519l-0.487,-5.028c2.346,-0.343 4.925,-0.93 7.035,-0.184c-1.151,-1.276 -1.671,-1.778 -3.789,-2.125c2.595,-0.64 5.21,0.819 7.571,1.634c-0.514,-2.224 -1.22,-4.3 -3.702,-5.39c2.088,0.028 4.19,0.361 6.321,1.366c-0.499,-3.866 -2.534,-6.554 -5.215,-8.67c0.826,1.695 1.077,3.26 0.753,4.696Z"/></clipPath><g clip-path="url(#_clip5)"><path d="M34.186,15.436c0,0 4.121,3.857 4.313,4.394c0.192,0.538 0.25,2.746 0.25,2.746c0,0 -3.577,1.073 -4.217,1.536c-0.641,0.464 3.637,-0.057 4.524,0.06c0.887,0.117 1.219,0.085 1.219,0.085c0,0 4.555,3.023 5.193,4.19c0.639,1.166 -0.922,-5.878 -2.051,-7.582c-1.129,-1.705 -5.751,-3.342 -5.668,-3.479c0.083,-0.136 -3.563,-1.95 -3.563,-1.95" style="fill:#cfc492;"/></g><g><clipPath id="_clip6"><path d="M21.707,10.704c-2.577,-0.111 -5.286,-0.794 -8.136,-2.089c1.457,1.927 3.194,3.149 5.103,3.932c-1.238,0.337 -3.709,0.073 -5.248,-0.289c1.18,0.998 2.521,1.541 3.755,1.737l-3.479,2.154l-8.08,-2.065c0,0 0.432,4.04 1.734,5.499c1.302,1.46 4.008,1.865 4.008,1.865c-2.375,3.565 -3.264,7.572 -3.308,11.071c0.99,-1.541 2.279,-3.047 3.65,-3.91c-0.919,1.398 -1.496,2.767 -1.732,4.106c1.642,-0.459 3.265,-0.588 4.877,-0.513c-1.142,0.36 -1.949,0.94 -2.529,1.672c2.389,-0.292 4.69,-0.191 6.885,0.384l-1.21,5.447c0.083,1.21 0.986,2.206 2.166,2.766l-0.366,-1.754c1.495,1.856 3.339,2.828 5.342,3.398c-0.635,-0.793 -1.15,-1.594 -1.395,-2.414c1.83,0.974 3.939,1.593 6.098,1.738c-0.447,-0.909 -0.695,-1.846 -0.653,-2.824l1.374,0.833c0.949,-1.022 1.436,-2.208 1.576,-3.519l-0.487,-5.028c2.346,-0.343 4.925,-0.93 7.035,-0.184c-1.151,-1.276 -1.671,-1.778 -3.789,-2.125c2.595,-0.64 5.21,0.819 7.571,1.634c-0.514,-2.224 -1.22,-4.3 -3.702,-5.39c2.088,0.028 4.19,0.361 6.321,1.366c-0.629,-4.875 -3.702,-7.877 -7.43,-10.221c4.633,-1.136 5.086,-5.788 4.174,-9.802l-7.666,4.594c-6.888,-1.499 -13.552,-3.488 -19.501,-7.472c2.018,2.379 4.271,4.346 7.042,5.403Z"/></clipPath><g clip-path="url(#_clip6)"><path d="M5.262,13.673c0,0 2.104,3.402 3.127,3.988c1.023,0.586 3.777,2.027 3.777,2.027l-1.434,1.991c0,0 -3.559,-0.781 -4.302,-2.812c-0.742,-2.031 -1.168,-5.194 -1.168,-5.194" style="fill:#f6adcd;"/><path d="M13.521,21.052c0,0 0.433,2.031 1.635,2.879c1.201,0.849 3.067,0.844 3.376,0.834c0.307,-0.01 1.425,-0.845 1.425,-0.845c0,0 0.197,-0.97 0.078,-0.925c-0.12,0.046 -0.509,-1.452 -0.509,-1.452c0,0 -5.976,-1.021 -6.005,-0.491" style="fill:#fef1b4;"/><path d="M28.032,28.708c0,0 1.048,-1.215 1.248,-2.042c0.2,-0.828 0.702,-2.161 0.702,-2.161c0,0 2.495,0.111 3.797,-0.888c1.302,-0.997 1.39,-2.477 1.462,-3.749c0.072,-1.272 -1.458,-3.074 -1.458,-3.074l-5.335,3.428c0,0 0.284,6.014 0.246,6.218c-0.037,0.204 -0.662,2.268 -0.662,2.268" style="fill:#9d5d0a;"/><path d="M28.875,22.933c0,0 1.672,0.971 2.264,0.803c0.591,-0.168 2.189,-0.387 2.501,-0.935c0.312,-0.549 1.019,-3.468 1.045,-3.941c0.026,-0.473 -1.034,-2.353 -1.034,-2.353l-5.032,3.882l0.256,2.544Z" style="fill:#fef1b4;"/><path d="M18.602,36.981l0.297,2.773l0.753,-2.058c0.781,1.359 1.756,2.506 2.927,3.439l-0.432,-2.324c1.911,1.421 3.618,2.056 5.481,2.603c-0.516,-0.925 -0.693,-2.006 -0.531,-3.241c1.057,0.69 2.298,1.39 3.663,1.67c0,0 1.109,-0.793 1.769,-2.182c0.661,-1.389 1.073,4.951 1.004,5.826c-0.068,0.875 -4.385,3.817 -4.385,3.817c0,0 -8.404,-1.32 -8.82,-1.631c-0.416,-0.31 -3.464,-1.715 -3.752,-2.422c-0.288,-0.708 -1.096,-1.886 -0.992,-2.194c0.103,-0.308 1.068,-1.999 1.068,-1.999l1.95,-2.077Z" style="fill:#cfc492;"/><path d="M23.939,22.804l1.117,4.955l3.457,-1.913l0.039,-5.702l5.397,-3.567l-6.853,2.627c0,0 -1.594,0.687 -1.78,0.933c-0.185,0.246 -1.377,2.667 -1.377,2.667" style="fill:#9d5d0a;"/></g></g><path d="M19.599,21.289l2.246,5.958l3.211,0.512l3.177,-1.779l0.138,-5.869l5.906,-4.031l0.006,0.508l-5.306,4.001l-0.123,5.585l-0.004,0.179l-0.156,0.087l-3.426,1.919l-0.202,0.035l-3.499,-0.558l-0.18,-0.029l-0.064,-0.17l-2.116,-5.76l-6.62,-0.961l-0.099,-0.529l7.111,0.902Z" style="fill-rule:nonzero;"/><path d="M20.876,26.42l0.821,0.413l3.194,0.575l0,1.274l-1.28,-0.231c0.161,0.175 0.334,0.329 0.519,0.461l0.003,0c0.231,0.165 0.483,0.298 0.758,0.398l0,1.312c-0.344,-0.084 -1.372,-0.348 -1.279,-0.472c-1.736,-0.417 -2.291,-1.992 -2.736,-3.73m4.015,0.988l0.118,0.021l2.276,-1.251l0,1.43l-0.041,0.022l0.041,0.011l0,1.845c-0.277,0.194 -0.587,0.327 -0.929,0.383c-0.343,0.357 -0.43,0.387 -0.871,0.685l-0.229,0.155l-0.262,-0.062c-0.015,-0.003 -0.051,-0.012 -0.103,-0.025l0,-1.312c0.042,0.016 0.084,0.03 0.128,0.044c0.326,-0.241 0.614,-0.502 0.864,-0.781c0.102,-0.113 0.198,-0.231 0.288,-0.353l-0.755,0.415l-0.411,0.067l-0.114,-0.02l0,-1.274Zm2.394,-1.23l0.851,-0.467l0.744,-0.745c0.13,1.85 -0.446,3.715 -1.595,4.52l0,-1.845l0.014,0.003l0.026,-0.058l-0.04,0.022l0,-1.43Z" style="fill-rule:nonzero;"/><path d="M21.587,27.45c0.402,1.114 0.891,1.813 1.75,2.386c-0.338,-0.449 -0.553,-0.947 -0.618,-1.503c0.6,0.875 1.393,1.462 2.417,1.703c0.932,-0.63 1.617,-1.395 2.055,-2.296c-0.041,0.587 -0.134,1.177 -0.417,1.775c0.976,-0.952 1.387,-2.261 1.662,-3.255l-3.321,1.825l-3.528,-0.635Z" style="fill:#f6adcd;"/><clipPath id="_clip7"><path d="M25.115,28.085l-3.528,-0.635c0.402,1.114 0.89,1.813 1.75,2.386c-0.338,-0.449 -0.553,-0.947 -0.618,-1.503c0.6,0.875 1.393,1.462 2.417,1.703c0.932,-0.63 1.617,-1.395 2.055,-2.296c-0.041,0.587 -0.134,1.176 -0.417,1.775c0.976,-0.952 1.388,-2.261 1.663,-3.255l-3.322,1.825Z"/></clipPath><g clip-path="url(#_clip7)"><path d="M25.031,27.891l0.259,2.477c0,0 -1.812,-0.03 -2.531,-0.303c-0.718,-0.273 -1.802,-2.344 -1.802,-2.344l0.024,-0.903l0.481,-0.586l3.569,1.659Z" style="fill:#f9cbdf;"/></g><path d="M14.449,21.066c0.808,5.202 5.792,2.833 5.742,2.702l-0.766,-2.021l-4.976,-0.681Z"/><g><clipPath id="_clip8"><path d="M20.191,23.768l-0.766,-2.021l-4.976,-0.681c0.808,5.202 5.792,2.833 5.742,2.702Z"/></clipPath><g clip-path="url(#_clip8)"><path d="M17.973,20.069c1.071,0.059 1.892,0.976 1.833,2.048c-0.059,1.072 -0.976,1.892 -2.048,1.833c-1.071,-0.059 -1.892,-0.976 -1.833,-2.047c0.059,-1.072 0.976,-1.893 2.048,-1.834" style="fill:#ffcb05;"/><path d="M17.917,21.082c0.512,0.028 0.905,0.467 0.876,0.979c-0.028,0.512 -0.466,0.905 -0.978,0.877c-0.513,-0.029 -0.906,-0.467 -0.877,-0.979c0.028,-0.513 0.466,-0.905 0.979,-0.877"/><path d="M17.264,22.297c0.174,0.01 0.306,0.158 0.297,0.332c-0.01,0.173 -0.159,0.306 -0.332,0.296c-0.173,-0.009 -0.306,-0.157 -0.296,-0.331c0.009,-0.173 0.157,-0.306 0.331,-0.297" style="fill:#fff;"/></g></g><path d="M28.614,22.876c4.828,1.153 5.116,-3.429 4.718,-5.853l-4.664,3.368l-0.054,2.485Z"/><g><clipPath id="_clip9"><path d="M28.668,20.392l-0.054,2.484c4.828,1.153 5.116,-3.429 4.718,-5.853l-4.664,3.369Z"/></clipPath><g clip-path="url(#_clip9)"><path d="M30.252,18.189c1.071,0.059 1.892,0.976 1.833,2.048c-0.059,1.072 -0.976,1.892 -2.048,1.833c-1.071,-0.059 -1.892,-0.976 -1.833,-2.048c0.059,-1.071 0.976,-1.892 2.048,-1.833" style="fill:#ffcb05;"/><path d="M30.196,19.202c0.512,0.028 0.904,0.467 0.876,0.979c-0.028,0.512 -0.467,0.905 -0.979,0.877c-0.512,-0.029 -0.905,-0.467 -0.877,-0.979c0.029,-0.513 0.467,-0.905 0.98,-0.877"/><path d="M29.543,20.417c0.173,0.01 0.306,0.158 0.296,0.332c-0.009,0.173 -0.157,0.306 -0.331,0.297c-0.174,-0.01 -0.306,-0.159 -0.297,-0.332c0.01,-0.173 0.158,-0.306 0.332,-0.297" style="fill:#fff;"/></g></g><path d="M25.292,30.038l-0.016,2.608l-0.313,-0.002l0.016,-2.609l0.313,0.003Z" style="fill-rule:nonzero;"/><path d="M31.307,34.396c-3.826,-1.433 -7.796,-1.81 -11.814,-1.342l-0.389,1.672l-0.821,-0.1l0.491,-2.037c2.26,-0.145 4.397,-0.334 6.666,-0.06c1.58,0.19 4.482,0.5 5.867,1.867" style="fill-rule:nonzero;"/><path d="M19.994,23.739l0.25,0.187c-0.672,0.892 -1.545,1.27 -2.503,1.299c-1.129,0.036 -2.372,-0.417 -3.532,-1.075c1.852,0.646 4.362,1.479 5.785,-0.411" style="fill-rule:nonzero;"/><path d="M28.685,22.654l-0.228,0.214c0.766,0.813 1.675,1.093 2.63,1.017c1.126,-0.088 2.312,-0.675 3.393,-1.455c-1.77,0.845 -4.174,1.947 -5.795,0.224" style="fill-rule:nonzero;"/><path d="M27.846,33.043c0.734,-0.69 1.297,-1.539 1.755,-2.488c0.486,1.002 0.676,2.027 0.433,3.085l-2.188,-0.597Z" style="fill:#fff;"/><path d="M27.71,32.899c0.357,-0.334 0.673,-0.709 0.955,-1.115c0.149,-0.215 0.289,-0.439 0.42,-0.669l0,0.752c-0.031,0.048 -0.063,0.095 -0.096,0.142c-0.23,0.332 -0.483,0.644 -0.761,0.933l0.857,0.234l0,0.41l-1.291,-0.352l-0.341,-0.093l0.257,-0.242Zm1.375,-1.784c0.119,-0.21 0.232,-0.425 0.338,-0.645l0.177,-0.367l0.178,0.367c0.252,0.517 0.427,1.042 0.508,1.577c0.081,0.538 0.067,1.084 -0.06,1.637l-0.046,0.201l-0.198,-0.054l-0.897,-0.245l0,-0.41l0.797,0.218c0.077,-0.436 0.078,-0.865 0.014,-1.288c-0.055,-0.366 -0.16,-0.729 -0.306,-1.091c-0.157,0.296 -0.324,0.581 -0.505,0.852l0,-0.752Z" style="fill-rule:nonzero;"/><path d="M5.847,13.803c0.748,1.708 1.641,2.818 2.696,3.651c1.061,0.838 2.297,1.406 3.716,2.019l-0.186,0.431c-1.45,-0.626 -2.715,-1.207 -3.821,-2.081c-1.113,-0.879 -2.052,-2.045 -2.835,-3.832l0.43,-0.188Z" style="fill-rule:nonzero;"/><path d="M10.128,22.213c0.697,-1.025 1.999,-3.685 4.072,-4.998c-0.573,0.556 -3.619,5.574 -3.554,5.35l-0.518,-0.352Z" style="fill-rule:nonzero;"/><path d="M38.832,18.764c-1.715,-1.122 -3.365,-2.303 -5.017,-3.483c1.964,0.813 3.892,1.727 5.655,3.09l-0.638,0.393Z" style="fill-rule:nonzero;"/><path d="M42.066,8.192c-0.102,1.671 -0.67,3.796 -1.739,5.618c-0.864,1.472 -2.058,2.751 -3.6,3.444l-0.192,-0.429c1.444,-0.648 2.568,-1.857 3.387,-3.253c1.031,-1.756 1.578,-3.801 1.676,-5.407l0.468,0.027Z" style="fill-rule:nonzero;"/><path d="M19.703,18.45c1.254,0.007 3.099,0.743 3.676,0.901l3.616,-3.792l0.076,-0.055c1.139,-0.569 0.939,-2.276 2.616,-2.023c-0.792,0.216 -1.286,1.992 -2.282,2.554c-1.221,1.538 -2.65,2.882 -3.663,4.614c-1.435,-0.747 -2.299,-1.3 -4.044,-1.573c-1.157,-0.006 -2.448,-0.512 -3.235,-0.82c-0.241,-0.094 -0.432,-0.169 -0.537,-0.197c-0.403,-0.111 -1.312,0.235 -1.314,0.236c1.416,-1.784 3.197,0.146 5.091,0.155" style="fill-rule:nonzero;"/><path d="M14.542,15.63c0,0 1.232,-0.223 1.756,0.171c0.524,0.394 1.215,1.052 2.277,0.928c1.063,-0.123 3.747,1.339 3.747,1.339c0,0 -1.794,-1.778 -2.946,-1.988c-1.153,-0.21 -1.391,0.142 -1.949,-0.29c-0.559,-0.433 -1.777,-1.275 -1.777,-1.275l-1.108,1.115Z"/><path d="M26.341,10.513c0,0 -0.739,2.844 -1.71,3.301c-0.972,0.458 -1.547,3.639 -1.547,3.639c0,0 0.725,-1.932 1.585,-2.359c0.861,-0.427 2.857,-4.296 2.857,-4.296l-1.185,-0.285Z"/><path d="M10.177,23.195c0,0 -0.45,2.846 -0.478,3.027c-0.028,0.181 0.213,2.075 0.213,2.075c0,0 0.736,-0.759 1.083,-0.97c0.347,-0.211 0.795,-0.423 1.297,-0.944c0.501,-0.52 1.013,-0.564 1.013,-0.564c-0.092,1.455 -0.293,2.751 0.018,3.634c0,0 5.5,-2.106 6.602,-1.954c-1.914,-0.271 -2.661,-0.107 -4.119,0.137c-1.458,0.245 -1.934,0.77 -1.934,0.77c0,0 -0.116,-2.507 -0.026,-2.831c0.091,-0.324 0.203,-0.719 0.203,-0.719c0,0 -1.57,0.442 -1.822,0.721c-0.252,0.278 -1.226,1.119 -1.576,1.209c-0.351,0.09 -0.463,0.139 -0.463,0.139c0,0 -0.119,-1.139 0.218,-1.65c0.338,-0.51 0.654,-3.275 0.654,-3.275l-0.036,-0.531l-0.847,1.726Z"/><path d="M39.237,18.786c0,0 0.918,2.494 0.696,3.212c-0.222,0.718 -0.401,1.329 -0.34,1.551c0.06,0.223 -2.588,0.076 -3.104,0.194c-0.516,0.117 -2.079,0.104 -2.487,0.228c-0.407,0.123 -1.718,0.818 -1.718,0.818c0,0 1.257,0.288 1.959,0.765c0.701,0.477 1.634,1.368 1.634,1.368l-5.568,-0.636l6.852,1.766l0.428,0.11c0,0 -0.479,-1.172 -0.966,-1.564c-0.488,-0.392 -0.966,-0.966 -1.5,-1.178c-0.534,-0.212 -0.943,-0.709 -0.943,-0.709c0,0 1.991,-0.475 3.035,-0.271c1.044,0.204 2.595,0.249 2.595,0.249l1.135,0.062c0,0 0.179,-3.235 -0.261,-3.843c-0.439,-0.609 -0.213,-1.4 -0.213,-1.4l-1.234,-0.722Z"/><path d="M50.103,29.846c-0.027,-0.014 -9.6,-4.783 -18.112,-2.074c-0.181,0.043 -0.117,0.397 0.119,0.376c5.518,-2.231 14.008,0.332 17.993,1.698" style="fill-rule:nonzero;"/><path d="M3.305,32.571c0.024,-0.012 8.285,-4.104 15.617,-1.752c0.156,0.037 0.1,0.343 -0.103,0.324c-4.87,-1.675 -12.076,0.259 -15.514,1.428" style="fill-rule:nonzero;"/><path d="M45.831,37.07c-0.018,-0.02 -6.271,-6.795 -13.959,-7.219c-0.159,-0.021 -0.216,0.285 -0.019,0.339c5.147,0.177 11.185,4.559 13.978,6.88" style="fill-rule:nonzero;"/><path d="M19.177,20.217c0,0 1.327,-0.128 1.808,0.171c0.48,0.299 1.071,0.759 1.834,1.04c0.763,0.281 1.043,0.403 1.043,0.403l1.183,-1.861c0,0 1.278,-0.746 1.764,-1.357c0.486,-0.611 0.596,-1.082 0.596,-1.082c0,0 0,1.262 -0.309,1.673c-0.309,0.41 -1.548,1.069 -1.781,1.447c-0.233,0.377 -1.318,2.467 -1.318,2.467c0,0 -1.187,-1.014 -1.702,-1.249c-0.516,-0.236 -1.071,-0.759 -1.51,-1.027c-0.44,-0.268 -0.347,-0.392 -1.608,-0.625"/><path d="M11.915,15.533c0,0 -0.916,1.046 -1.456,0.946c-0.541,-0.1 -1.038,0.954 -1.038,0.954c0,0 0.473,-0.544 1.077,-0.409c0.604,0.135 2.403,-1.285 2.403,-1.285l-0.986,-0.206Z"/><path d="M35.167,11.698c0,0 0.751,0.722 1.524,0.702c0.772,-0.021 1.522,-0.046 1.728,0.226c0.206,0.272 1.064,0.921 1.064,0.921c0,0 -0.601,-0.552 -0.727,-1.056c-0.126,-0.504 -0.301,-0.817 -0.58,-0.822c-0.278,-0.004 -1.828,0.321 -2.151,-0.01c-0.324,-0.33 -0.858,0.039 -0.858,0.039"/><path d="M20.709,34.245c0,0 5.795,-0.611 7.505,0.219c1.71,0.83 -3.794,2.384 -4.368,2.465c-0.574,0.081 -3.137,-1.422 -3.137,-2.684" style="fill:#cfc492;"/><path d="M22.809,28.243c0.669,0.95 1.455,1.363 2.326,1.696l-0.044,-0.368c-0.722,-0.109 -1.517,-0.658 -2.282,-1.328" style="fill:#fff;"/></g></svg>