<?xml version="1.0" encoding="UTF-8" standalone="no"?><!DOCTYPE svg PUBLIC "-//W3C//DTD SVG 1.1//EN" "http://www.w3.org/Graphics/SVG/1.1/DTD/svg11.dtd"><svg width="100%" height="100%" viewBox="0 0 603 576" version="1.1" xmlns="http://www.w3.org/2000/svg" xmlns:xlink="http://www.w3.org/1999/xlink" xml:space="preserve" style="fill-rule:evenodd;clip-rule:evenodd;stroke-miterlimit:2.613;"><rect id="Artboard1" x="0" y="0" width="602.435" height="576" style="fill:none;"/><g id="Layer-1"><path d="M193.301,337.615c0,0 3.697,3.385 6.532,6.143c2.836,2.759 18.182,7.511 22.484,12.218c4.302,4.705 12.521,15.547 14.203,15.311c1.681,-0.236 6.979,-2.895 9.536,-1.227c2.556,1.668 4.711,4.795 4.711,4.795l24.246,16.828c0,0 2.668,0.267 3.465,0.739c0.798,0.472 4.138,4.837 4.138,4.837c-10.966,22.824 -67.222,62.911 -94.387,54.292l-1.722,-10.885c0,0 4.49,-12.782 11.699,-19.748c7.208,-6.966 21.238,-19.461 21.238,-19.461l-15.431,-2.732c0,0 6.215,-5.555 8.3,-6.474c2.084,-0.921 4.425,-4.615 5.55,-6.643c1.124,-2.026 5.182,-3.717 5.182,-3.717c0,0 -16.912,-11.381 -31.328,-9.836c-14.416,1.547 -25.158,-16.875 -25.158,-16.875c0,0 -0.221,-6.912 2.36,-8.928c2.582,-2.015 3.811,-1.749 4.297,-4.39c0.485,-2.641 -0.534,-5.864 2.956,-8.112c3.489,-2.25 21.808,-4.036 21.808,-4.036c0,0 -3.14,5.304 -4.679,7.901"/><path d="M276.24,351.976c9.998,-2.417 20.324,-2.329 30.35,-0.121c9.069,2 17.88,5.729 25.661,10.796c6.468,4.212 12.836,9.765 17.162,16.208c3.361,5.006 6.044,11.515 4.211,17.585c-0.285,0.945 -0.691,1.847 -1.211,2.688c-6.751,10.904 -29.416,7.666 -39.752,5.375c-9.307,-2.063 -27.903,-7.766 -33.025,-16.509c-3.803,-6.492 -5.524,-14.326 -6.071,-21.773c-0.262,-3.57 -0.336,-7.685 0.054,-11.265l0.035,-0.331l2.586,-2.653Z"/><path d="M277.052,355.334c0,0 -1.966,18.062 5.564,30.918c7.531,12.855 62.652,25.911 67.701,9.193c5.05,-16.718 -33.831,-49.642 -73.265,-40.111" style="fill:#480f0d;"/><path d="M320.21,390.932c-1.177,0.891 -2.948,4.647 -2.948,5.993c0,1.645 -0.107,3.345 -0.21,4.986c-0.165,2.668 -0.392,5.339 -0.7,7.996c-0.451,3.877 -1.363,12.158 -4.632,14.671c-7.016,5.396 -18.111,13.084 -26.698,15.174c-4.096,0.996 -14.975,11.312 -18.187,14.401c-6.184,5.954 -12.29,12.242 -18.06,18.605l-1.852,2.043l-19.917,-11.221c-1.688,-0.951 -2.133,-2.919 -1.454,-4.43c0.021,-0.044 0.037,-0.078 0.04,-0.083c0.011,-0.024 0.019,-0.039 0.037,-0.073c0.008,-0.016 0.015,-0.031 0.022,-0.047c0.025,-0.046 0.048,-0.092 0.073,-0.139c0.09,-0.175 0.181,-0.349 0.271,-0.523c0.343,-0.657 0.687,-1.315 1.034,-1.97c1.247,-2.366 2.51,-4.724 3.785,-7.074c4.013,-7.404 8.143,-14.754 12.429,-22.004c3.87,-6.55 5.606,-13.31 6.19,-20.835c0.213,-2.74 0.246,-5.474 0.412,-8.213c0.135,-2.231 0.377,-4.821 1.565,-6.765c1.031,-1.688 2.313,-3.364 3.512,-4.939c1.668,-2.188 3.387,-4.344 5.126,-6.476c1.92,-2.353 3.872,-4.688 5.875,-6.969c1.248,-1.422 2.798,-3.252 4.255,-4.443c0.359,-0.294 0.953,-0.767 1.208,-1.164c0.557,-0.866 1.311,-4.986 1.56,-6.067c1.189,-5.151 11.977,-13.15 16.131,-16.28c5.626,-4.241 11.511,-8.373 17.415,-12.231l0.304,-0.198l0.34,-0.132c8.752,-3.382 18.751,-1.891 27.306,1.368c7.082,2.696 14.351,7.045 19.809,12.332c3.896,3.773 8.866,10.091 6.718,15.894c-0.226,0.61 -0.526,1.189 -0.894,1.727c-5.566,8.136 -14.917,14.308 -24.461,16.695c-1.839,0.459 -4.015,2.06 -5.487,3.223c-1.707,1.348 -3.309,2.814 -4.971,4.213c-1.376,1.16 -3.111,2.609 -4.946,2.955"/><path d="M308.38,335.748c0,0 -30.588,19.982 -32.068,26.395c-1.481,6.413 -1.234,6.907 -3.947,9.127c-2.714,2.221 -15.295,17.514 -18.008,21.956c-2.714,4.439 1.479,19.487 -8.141,35.769c-9.621,16.28 -17.514,31.576 -17.514,31.576l17.514,9.867c0,0 28.862,-31.823 37.989,-34.043c9.128,-2.221 22.203,-12.087 25.41,-14.554c3.206,-2.467 4.192,-21.955 4.192,-24.916c0,-2.959 3.208,-9.127 5.674,-9.375c2.468,-0.246 9.375,-8.88 15.295,-10.359c5.921,-1.48 16.035,-5.921 22.448,-15.294c6.414,-9.375 -27.135,-34.536 -48.844,-26.149" style="fill:#ed8c0e;"/><clipPath id="_clip1"><path d="M308.381,335.747c0,0 -30.589,19.983 -32.069,26.396c-1.481,6.413 -1.233,6.907 -3.947,9.127c-2.714,2.221 -15.295,17.514 -18.008,21.956c-2.714,4.439 1.48,19.487 -8.141,35.769c-9.62,16.28 -17.514,31.576 -17.514,31.576l17.514,9.866c0,0 28.863,-31.822 37.989,-34.042c9.128,-2.22 22.203,-12.087 25.41,-14.554c3.206,-2.468 4.192,-21.954 4.192,-24.915c0,-2.96 3.208,-9.128 5.675,-9.375c2.467,-0.247 9.374,-8.881 15.293,-10.36c5.922,-1.48 16.035,-5.921 22.449,-15.294c5.521,-8.069 -18.567,-27.833 -39.226,-27.835c-3.343,0 -6.594,0.517 -9.617,1.685Z"/></clipPath><g clip-path="url(#_clip1)"><path d="M261.901,377.757c0,0 13.724,-2.713 21.725,-1.253c8.002,1.462 7.986,5.481 12.527,7.046c4.542,1.566 19.573,9.489 19.573,11.431c0,1.944 2.352,-5.117 7.126,-7.124c4.773,-2.005 12.609,-9.426 12.609,-9.426c0,0 -18.795,-16.958 -26.468,-18.367c-7.673,-1.41 -27.232,-4.921 -29.627,-4.348c-2.395,0.573 -13.747,12.49 -17.465,22.041" style="fill:#9d5d0a;"/></g><path d="M215.093,289.486c14.868,0.798 29.625,6.841 40.557,16.998c3.965,3.685 7.795,8.299 9.995,13.283c1.787,4.047 2.717,9.085 0.14,13.027c-1.474,2.256 -3.76,3.604 -6.345,4.22c-5.908,1.407 -12.202,4.936 -17.382,8.052c-4.909,2.953 -9.661,6.151 -14.552,9.128c-3.434,2.093 -8.318,5.008 -12.323,5.581c-2.619,0.374 -5.506,0.338 -8.149,0.246c-3.319,-0.116 -6.646,-0.383 -9.95,-0.719c-4.183,-0.425 -8.381,-0.965 -12.528,-1.657c-2.235,-0.373 -5.999,-0.945 -8.034,-1.886c-4.287,-1.979 -11.849,-9.926 -11.849,-14.831c0,-1.76 0.701,-3.908 1.253,-5.579c0.701,-2.122 1.471,-4.221 2.177,-6.342c0.706,-2.129 1.501,-4.583 1.78,-6.809c0.44,-3.525 5.06,-7.165 7.683,-9.233c4.317,-3.406 8.981,-6.544 13.585,-9.549c7.119,-4.644 14.453,-9.155 21.813,-13.42l0.988,-0.572l1.141,0.062Z"/><path d="M214.887,293.318c0,0 -40.457,23.434 -41.196,29.355c-0.74,5.921 -5.181,15.295 -5.181,18.255c0,2.96 6.414,9.867 9.621,11.347c3.207,1.48 27.876,4.935 36.509,3.701c8.635,-1.235 28.369,-18.995 43.911,-22.696c15.54,-3.7 -6.908,-37.988 -43.664,-39.962" style="fill:#ed8c0e;"/><clipPath id="_clip2"><path d="M173.691,322.672c-0.74,5.921 -5.181,15.296 -5.181,18.256c0,2.961 6.414,9.867 9.621,11.347c3.207,1.48 27.876,4.935 36.509,3.701c8.635,-1.235 28.369,-18.995 43.911,-22.695c15.541,-3.701 -6.908,-37.989 -43.664,-39.964c0,0 -40.457,23.436 -41.196,29.355Z"/></clipPath><g clip-path="url(#_clip2)"><path d="M176.28,318.206c0,0 -2.107,5.53 -1.48,9.288c0.626,3.758 -1.584,14.369 -1.584,14.369c0,0 9.569,7.396 14.267,8.491c4.697,1.097 31.318,4.444 34.15,2.82c2.831,-1.625 -6.121,12.369 -22.406,11.587c-16.285,-0.784 -36.954,-14.719 -37.737,-16.285c-0.783,-1.566 -1.88,-10.021 -1.41,-11.743c0.47,-1.724 5.011,-9.71 5.011,-9.71c0,0 -2.505,-4.854 11.189,-8.817" style="fill:#9d5d0a;"/></g><path d="M277.872,161.091c-0.004,0.042 -1.586,14.695 1.671,26.917c3.285,12.326 6.953,17.88 6.963,17.896l0.207,0.366c0.038,0.074 13.134,26.049 12.649,34.886c-0.056,1.011 -0.087,1.657 -0.117,2.284c-0.373,7.628 -0.686,14.038 -5.48,18.603c-2.138,2.036 -4.509,9.801 -5.816,14.599l75.481,18.475l0,8.337l-81.372,-19.918l-3.921,-0.961l0.938,-3.911c0.013,-0.051 4.2,-17.821 9.105,-22.492c2.445,-2.329 2.686,-7.254 2.973,-13.112c0.043,-0.89 0.087,-1.79 0.117,-2.348c0.349,-6.341 -10.584,-28.407 -11.7,-30.639c-0.709,-1.143 -4.592,-7.725 -7.864,-20.002c-3.639,-13.652 -1.9,-29.759 -1.895,-29.806l0.581,-5.616l5.131,2.348c0.711,0.326 22.558,-50.925 22.625,-51.07l0.959,-2.091l2.261,-0.258c0.077,-0.008 25.234,-2.978 62.062,-2.988l0,8.092c-29.873,0.013 -52.015,2.01 -58.894,2.715c-3.881,8.349 -18.511,39.229 -27.253,49.634l0.589,0.06Zm85.558,134.026l7.426,1.818c2.597,-8.606 9.445,-29.187 16.626,-33.166c1.892,-1.05 3.311,-1.772 4.756,-2.51c5.817,-2.966 12.098,-6.17 22.937,-15.579c7.42,-6.439 15.013,-13.601 20.888,-19.85c4.921,-5.233 8.522,-9.659 9.563,-12.177c2.199,-5.315 3.673,-16.273 3.951,-18.456l-4.097,-51.74c-6.974,-5.901 -42.487,-34.488 -76.562,-34.754c-1.856,-0.014 -3.686,-0.021 -5.488,-0.021l0,-8.092c1.813,0 3.653,0.006 5.52,0.021c41.033,0.319 83.004,37.741 83.126,37.849l1.364,2.713l4.261,53.797l-0.015,0.794c-0.005,0.04 -1.682,13.987 -4.569,20.967c-1.452,3.507 -5.619,8.77 -11.151,14.652c-6.037,6.422 -13.85,13.789 -21.491,20.422c-11.637,10.101 -18.345,13.523 -24.556,16.689c-1.656,0.845 -3.277,1.672 -4.503,2.351c-6.105,3.383 -13.828,31.925 -13.851,32.007l-1.04,3.807l-3.815,-0.934l-9.28,-2.271l0,-8.337Z" style="fill-rule:nonzero;"/><path d="M273.842,160.678c0,0 -1.665,15.424 1.783,28.362c3.448,12.938 7.47,19.039 7.47,19.039c0,0 12.647,25.1 12.221,32.855c-0.427,7.755 -0.316,14.339 -4.344,18.174c-4.028,3.835 -7.962,20.493 -7.962,20.493l90.653,22.19c0,0 8.175,-30.266 15.786,-34.484c7.61,-4.218 14.239,-6.294 28.377,-18.564c14.136,-12.271 28.878,-27.104 31.545,-33.551c2.667,-6.446 4.284,-19.904 4.284,-19.904l-4.261,-53.797c0,0 -40.971,-36.526 -80.46,-36.834c-39.488,-0.308 -67.106,2.952 -67.106,2.952c0,0 -24.934,54.466 -27.986,53.069" style="fill:#9d5d0a;"/><clipPath id="_clip3"><path d="M301.828,107.609c0,0 -24.934,54.466 -27.986,53.069c0,0 -1.665,15.424 1.783,28.362c3.448,12.938 7.47,19.039 7.47,19.039c0,0 12.647,25.1 12.221,32.855c-0.427,7.756 -0.316,14.339 -4.344,18.174c-4.028,3.835 -7.962,20.493 -7.962,20.493l90.653,22.189c0,0 8.175,-30.265 15.786,-34.483c7.61,-4.218 14.239,-6.294 28.377,-18.564c14.136,-12.271 28.878,-27.104 31.545,-33.551c2.667,-6.446 4.284,-19.904 4.284,-19.904l-4.261,-53.797c0,0 -40.97,-36.526 -80.46,-36.834c-1.778,-0.014 -3.533,-0.021 -5.263,-0.021c-36.657,0 -61.843,2.973 -61.843,2.973Z"/></clipPath><g clip-path="url(#_clip3)"><path d="M364.106,185.945c1.12,-1.535 4.058,6.169 17.543,9.077c13.485,2.908 19.103,2.035 21.922,1.409c2.819,-0.626 14.319,-13.623 15.458,-14.406c1.14,-0.782 7.247,-14.405 7.247,-17.224c0,-2.818 -2.192,-12.37 -2.192,-12.37c0,0 5.912,-0.711 7.675,0c1.764,0.711 2.973,-10.335 0.78,-11.274c-2.192,-0.94 -35.268,2.506 -43.895,5.249c-8.625,2.743 -17.973,5.608 -24.538,39.539" style="fill:#9d5d0a;"/></g><path d="M551.844,258.367c1.168,-1.694 2.267,-3.559 3.417,-5.653l7.149,-13.009l0.053,14.845c0.031,8.708 -1.486,16.286 -5.426,22.674c3.929,-2.384 7.521,-5.499 10.1,-8.19l9.472,-9.893l-2.952,13.373c-1.675,7.589 -4.976,13.939 -10.299,19.624c-7.089,7.571 -16.894,13.001 -26.401,17.086c-4.78,9.499 -23.421,19.895 -31.68,24.281c-7.974,4.233 -16.423,8.219 -24.879,11.392c-2.984,1.122 -6.161,2.232 -9.275,2.925c-2.566,0.572 -5.85,1.064 -7.879,-1.059l-27.708,-29.017l5.448,-2.039c7.42,-2.775 15.095,-6.178 22.113,-9.811c3.094,-1.603 6.178,-3.323 9.089,-5.242c10.831,-7.139 10.926,-16.819 14.498,-27.957c1.583,-4.936 2.976,-9.977 4.713,-14.856c1.051,-2.955 2.509,-6.714 4.745,-9.226c-0.911,-0.218 -1.781,-0.466 -2.579,-0.753c-2.483,-0.884 -5.573,-3.128 -7.711,-4.683c-3.356,-2.442 -6.624,-5.051 -9.826,-7.691c-3.188,-2.631 -6.338,-5.323 -9.417,-8.084c-1.981,-1.779 -4.262,-3.778 -6.013,-5.779c-2.569,-2.939 -5.146,-6.75 -6.962,-10.237l-0.317,-0.608c-1.736,0.262 -3.207,0.649 -4.264,1.195c-2.086,1.072 -4.445,3.045 -6.239,4.557c-2.908,2.45 -5.713,5.057 -8.465,7.682c-3.409,3.254 -6.748,6.578 -10.078,9.911c-1.228,1.23 -2.454,2.462 -3.693,3.68c-0.747,0.735 -1.551,1.555 -2.366,2.211c-2.631,2.118 -5.518,0.345 -7.357,-1.75c-1.542,-1.76 -2.857,-3.959 -3.93,-6.029c-3.521,-6.79 -5.661,-14.712 -6.659,-22.265c-3.634,-27.512 6.768,-54.29 22.443,-76.486l1.509,-2.137l57.285,14.085l0.79,0.873c5.274,5.838 13.468,16.217 15.891,23.622c1.463,4.478 2.956,10.313 3.31,15.162c5.491,1.178 12.373,3.701 16.725,6.945c4.487,3.344 9.682,17.551 11.668,22.894c1.653,4.447 3.214,8.93 4.717,13.429l0.215,0.643l-0.019,0.678c-0.013,0.504 -0.031,1.007 -0.05,1.51c2.978,3.564 5.789,8.117 5.405,12.804c-0.311,3.804 0.589,7.689 2.048,11.195c0.591,-1.775 0.971,-3.635 1.273,-5.458l2.972,-17.96l4.531,17.631c0.733,2.853 1.025,5.911 0.865,8.965"/><path d="M403.581,125.04l75.863,23.84c0,0 12.251,13.559 15.092,22.242c2.839,8.684 3.164,14.796 3.164,14.796l-23.697,8.814l26.106,-6.008c0,0 9.887,1.971 15.816,6.389c4.044,3.013 11.014,22.422 15.038,34.463c-0.025,0.986 -0.065,1.984 -0.117,2.967c3.349,3.739 5.766,7.69 5.484,11.138c-0.847,10.355 5.841,19.475 5.841,19.475c2.558,-3.008 4.099,-6.803 5.09,-12.799c1.936,7.528 0.187,15.608 -3.6,20.698c6.947,-4.082 10.603,-8.557 14.964,-16.492c0.055,15.594 -5.28,24.244 -14.496,30.259c8.436,0.79 18.439,-5.468 25.78,-13.135c-2.662,12.057 -10.317,23.948 -35.883,34.609c-4.58,14.54 -64.358,41.638 -68.006,37.816l-23.69,-24.809c0,0 19.744,-7.386 31.969,-15.444c12.222,-8.056 12.559,-19.139 16.039,-29.99c3.48,-10.851 5.819,-20.629 9.499,-23.49c1.404,-1.092 5.06,-2.623 9.046,-4.102c-4.058,-0.212 -10.412,-0.737 -14.031,-2.029c-5.615,-2.002 -27.638,-20.888 -31.367,-25.15c-3.727,-4.262 -6.449,-9.484 -6.449,-9.484l22.121,-1.799c0,0 -23.689,-3.462 -31.862,0.747c-8.174,4.21 -28.792,26.292 -31.49,28.465c-2.698,2.171 -54.202,-52.545 -12.224,-111.987" style="fill:#ed8c0e;"/><g><clipPath id="_clip4"><path d="M415.805,237.026c2.698,-2.172 23.316,-24.254 31.49,-28.464c8.173,-4.208 31.862,-0.747 31.862,-0.747l-22.121,1.8c0,0 2.722,5.221 6.45,9.483c3.728,4.262 25.751,23.148 31.365,25.15c3.621,1.291 9.974,1.817 14.033,2.03c-3.987,1.478 -7.643,3.01 -9.046,4.101c-3.682,2.86 -6.02,12.639 -9.5,23.49c-3.48,10.852 -3.818,21.934 -16.04,29.99c-12.223,8.058 -31.968,15.443 -31.968,15.443l23.69,24.81c3.649,3.822 63.426,-23.276 68.006,-37.815c25.565,-10.662 33.221,-22.553 35.883,-34.61c-7.341,7.667 -17.344,13.924 -25.781,13.135c9.217,-6.015 14.552,-14.665 14.497,-30.259c-4.362,7.935 -8.017,12.411 -14.965,16.492c3.788,-5.09 5.538,-13.169 3.602,-20.697c-0.992,5.996 -2.533,9.791 -5.091,12.798c0,0 -6.689,-9.12 -5.84,-19.475c0.281,-3.448 -2.136,-7.399 -5.485,-11.137c0.052,-0.984 0.091,-1.982 0.117,-2.968c-4.024,-12.041 -10.994,-31.45 -15.038,-34.462c-5.929,-4.419 -15.817,-6.39 -15.817,-6.39l-26.104,6.009l23.696,-8.814c0,0 -0.325,-6.113 -3.165,-14.797c-2.84,-8.683 -15.091,-22.242 -15.091,-22.242l-75.863,-23.84c-41.979,59.442 9.526,114.159 12.224,111.986Z"/></clipPath><g clip-path="url(#_clip4)"><path d="M364.106,185.945c1.12,-1.535 4.058,6.169 17.543,9.077c13.485,2.908 19.103,2.035 21.922,1.409c2.819,-0.626 14.319,-13.623 15.458,-14.406c1.14,-0.782 7.247,-14.405 7.247,-17.224c0,-2.818 -2.192,-12.37 -2.192,-12.37c0,0 5.912,-0.711 7.675,0c1.764,0.711 2.973,-10.335 0.78,-11.274c-2.192,-0.94 -35.268,2.506 -43.895,5.249c-8.625,2.743 -17.973,5.608 -24.538,39.539" style="fill:#9d5d0a;"/><path d="M462.243,143.474c0,0 -2.771,39.491 -2.771,40.9c0,1.409 -1.785,11.621 -2.1,13.725c-0.314,2.105 -1.971,4.126 -1.971,4.126c0,0 12.683,-1.879 18.477,0c5.793,1.878 15.345,6.263 15.345,6.263c0,0 -20.982,3.915 -22.548,5.168c-1.566,1.253 2.975,7.829 2.975,7.829c0,0 8.262,10.619 10.471,12.395c2.209,1.776 5.344,6.395 5.344,6.395c0,0 -22.705,-18.79 -24.427,-21.452c-1.723,-2.662 -5.81,-9.062 -5.81,-9.062c0,0 -2.332,2.799 -3.115,4.835c-0.783,2.035 -10.022,13.622 -10.022,13.622l-6.371,3.809c0,0 10.045,-21.986 11.575,-23.859c1.53,-1.872 7.002,-30.477 7.793,-33.345c0.79,-2.87 0.522,-22.484 0.522,-22.484l0.574,-8.99l6.059,0.125Z" style="fill:#9d5d0a;"/><path d="M463.826,143.971l15.22,8.929c0,0 7.202,14.563 7.515,17.225c0.313,2.662 2.036,11.274 1.722,13.153c-0.313,1.879 -16.578,11.983 -16.578,11.983l32.238,-2.902c0,0 9.551,2.976 12.527,7.674c2.975,4.697 14.493,29.543 14.493,29.543c0,0 -5.412,-30.796 -7.604,-35.18c-2.193,-4.385 -19.104,-11.274 -19.104,-11.274c0,0 -5.962,-22.241 -8.612,-26.463c-2.649,-4.223 -12.002,-12.871 -14.139,-12.84c-2.139,0.03 -14.566,-5.101 -14.566,-5.101l-3.112,5.253Z" style="fill:#f5b663;"/><path d="M473.577,277.448c0,0 25.698,13.52 40.021,14.909c14.323,1.389 9.799,20.619 12.232,23.594c2.43,2.974 -1.144,16.055 -8.042,18.564c-6.898,2.508 -30.827,7.762 -30.827,7.762c0,0 -13.073,-10.776 -15.769,-19.177c-2.698,-8.4 -6.242,-15.196 -6.242,-18.181c0,-2.984 8.627,-27.471 8.627,-27.471" style="fill:#f5b663;"/></g></g><path d="M142.795,196.494c-1.914,-1.067 -3.825,-2.347 -5.633,-3.548c-2.808,-1.866 -5.584,-3.788 -8.339,-5.733c-4.474,-3.158 -9.223,-6.482 -13.438,-9.971c-1.055,-0.847 -4.579,-2.081 -5.898,-2.546c-3.74,-1.319 -7.578,-2.456 -11.394,-3.537c-6.624,-1.876 -13.351,-3.62 -20.055,-5.197l-2.383,-0.56l-10.92,-32.947l7.692,1.89c3.012,0.741 11.528,2.717 13.654,4.319c1.114,0.84 1.952,0.896 3.349,1.095c1.043,-0.005 2.509,-0.26 3.527,-0.402c2.546,-0.352 5.089,-0.753 7.628,-1.149c7.077,-1.107 14.15,-2.226 21.247,-3.201c7.745,-1.063 28.012,-3.996 35.038,-1.073c8.432,3.509 20.131,15.209 26.414,22.321l0.343,0.259c4.242,-6.011 10.06,-12.431 15.552,-17.042c2.657,-2.23 5.533,-4.295 8.614,-5.897c5.353,-2.785 11.282,-4.437 17.339,-4.373c2.321,0.024 5.363,0.333 7.58,1.131l0.623,0.225l3.541,2.67c0.338,-0.656 0.685,-1.279 0.961,-1.78c2.989,-5.417 6.51,-10.763 9.925,-15.916c4.869,-7.342 11.066,-13.897 17.925,-19.413c2.887,-2.32 6.317,-4.86 9.574,-6.666l1.756,-0.976l87.871,32.522l-3.16,4.628c-7.498,10.98 -15.025,21.942 -22.582,32.882c-4.965,7.189 -9.939,14.374 -14.972,21.515c-1.768,2.507 -3.542,5.014 -5.349,7.492c-0.901,1.234 -2.058,2.937 -3.132,4.006c-3.076,3.062 -11.911,4.993 -16.109,5.592c-6.473,0.924 -16.891,1.192 -19.748,-6.255c-0.746,-1.945 -5.32,-6.072 -9.281,-9.387l-1.695,0.599c-7.381,2.608 -14.898,5.062 -22.392,7.309c-5.812,1.743 -12.178,3.625 -18.166,4.569c-4.359,0.687 -10.208,-0.212 -16.297,-1.851l-2.848,1.382c-2.945,1.429 -6.317,2.899 -9.624,4.04l2.344,1.087l-6.394,0.139c-1.285,0.317 -2.761,0.307 -4.303,0.093l-8.179,0.178c-0.282,0.005 -0.563,0.009 -0.84,0.01c0.61,3.464 7.113,8.464 12.563,11.879c-2.734,1.231 -5.471,1.598 -6.754,1.264c0.392,0.291 0.786,0.582 1.179,0.871l19.939,14.64l-23.752,-6.909c-5.048,-1.47 -10.452,-3.718 -15.195,-5.932c-9.83,-4.589 -19.639,-10.635 -27.346,-18.346"/><path d="M373.465,123.158l-96.082,-29.879c0,0 -15.214,8.444 -25.973,24.673c-10.757,16.227 -11.412,19.053 -11.412,19.053l17.332,17.121l-26.101,-19.675c0,0 -9.24,-3.329 -21.416,3.006c-12.176,6.335 -23.169,22.386 -23.169,22.386l5.162,8.317l-11.512,-8.678c0,0 -15.28,-17.418 -25.105,-21.506c-9.825,-4.087 -62.562,6.679 -66.212,6.14c-3.65,-0.539 -4.355,-1.07 -5.531,-1.957c-1.176,-0.886 -12.064,-3.563 -12.064,-3.563l7.658,23.105c0,0 34.139,8.034 39.135,12.169c4.996,4.134 22.281,16.426 27.28,19.089c15.966,16.296 41.104,23.61 41.104,23.61c-8.504,-6.245 -17.519,-13.524 -23.849,-23.509c9.735,9.809 26.203,16.602 23.616,14.652c-10.76,-7.423 -19.839,-17.705 -19.839,-17.705c6.109,3.597 10.412,4.764 16.42,4.633c-4.253,-1.97 -7.652,-4.701 -11.512,-8.678c0,0 17.575,9.93 23.055,8.53c5.481,-1.4 12.797,-4.95 12.797,-4.95l-18.176,-10.905c0,0 26.412,12.903 38.548,10.988c12.137,-1.913 39.782,-11.681 39.782,-11.681l-18.507,-18.008c0,0 32.044,21.574 35.029,29.356c2.984,7.781 16.952,0.031 28.683,-0.873c11.731,-0.903 60.859,-65.261 60.859,-65.261" style="fill:#ed8c0e;"/><g><clipPath id="_clip5"><path d="M251.41,117.951c-10.758,16.229 -11.412,19.054 -11.412,19.054l17.332,17.122l-26.101,-19.676c0,0 -9.24,-3.329 -21.416,3.006c-12.177,6.335 -23.17,22.386 -23.17,22.386l5.163,8.317l-11.513,-8.678c0,0 -15.279,-17.418 -25.105,-21.506c-5.579,-2.321 -24.993,0.147 -41.4,2.616c-12.488,1.879 -23.233,3.757 -24.811,3.524c-3.65,-0.539 -4.356,-1.07 -5.531,-1.956c-1.176,-0.887 -12.064,-3.564 -12.064,-3.564l7.658,23.106c0,0 34.139,8.033 39.135,12.168c4.996,4.134 22.28,16.426 27.28,19.089c15.966,16.296 41.104,23.609 41.104,23.609c-8.504,-6.244 -17.519,-13.523 -23.849,-23.508c9.735,9.81 26.203,16.602 23.616,14.652c-10.76,-7.422 -19.839,-17.705 -19.839,-17.705c6.11,3.597 10.411,4.764 16.42,4.633c-4.253,-1.97 -7.652,-4.7 -11.513,-8.678c0,0 17.576,9.93 23.056,8.53c5.481,-1.4 12.797,-4.95 12.797,-4.95l-18.176,-10.905c0,0 26.412,12.903 38.549,10.988c12.136,-1.913 39.781,-11.681 39.781,-11.681l-18.507,-18.008c0,0 32.044,21.574 35.028,29.356c2.985,7.781 16.953,0.031 28.683,-0.872c11.732,-0.903 60.859,-65.262 60.859,-65.262l-96.081,-29.878c0,0 -15.214,8.443 -25.973,24.671Z"/></clipPath><g clip-path="url(#_clip5)"><path d="M304.56,101.73c0,0 -13.105,15.625 -16.158,19.304c-3.053,3.68 -8.847,9.474 -9.473,14.799c-0.626,5.323 -5.132,23.685 -5.294,27.468c-0.162,3.782 -28.012,-8.767 -28.012,-8.767c0,0 7.626,16.53 7.626,19.192c0,2.662 -7.125,6.996 -14.681,8.822c-7.555,1.826 -15.168,2.984 -21.334,3.862c-6.166,0.878 -15.81,-2.455 -15.81,-2.455l-3.265,0.134c0,0 22.05,8.115 27.687,8.115c5.638,0 43.013,-12.326 43.013,-12.326l0.945,-0.944l9.163,6.661c0,0 1.983,-18.085 3.563,-17.818c1.58,0.265 6.361,-32.929 6.361,-32.929l24.773,-32.403c0,0 -9.104,-2.669 -9.104,-0.715" style="fill:#9d5d0a;"/><path d="M161.68,140.952c0,0 10.055,14.76 9.988,26.197c-0.068,11.438 -6.42,21.6 -11.117,25.911c-4.699,4.31 -11.902,8.677 -11.902,8.677l-5.949,-2.8l7.359,-41.339c0,0 4.227,-9.395 11.621,-16.646" style="fill:#9d5d0a;"/></g></g><path d="M477.14,314.54c0.414,0.502 0.982,1.067 1.346,1.448c1.075,1.127 2.176,2.232 3.262,3.347c1.696,1.74 5.492,5.415 5.958,7.782c0.453,2.293 -0.261,7.62 -0.735,10.772c1.941,3.438 3.515,8.311 1.813,11.877c-1.086,2.276 -4.878,3.867 -7.091,4.801c-3.553,1.501 -7.271,2.773 -10.935,3.975c-5.678,1.864 -11.463,3.606 -17.228,5.186l-3.843,1.055l-0.267,-27.066l-5.291,-6.161l-6.811,-1.184c-0.178,1.739 -0.523,3.352 -1.093,4.703c-2.217,5.257 -5.734,12.651 -11.594,14.511c-4.162,1.321 -11.083,-0.714 -15.052,-2.342l-4.783,-1.961l4.005,-3.258c1.927,-1.597 3.759,-4.444 4.596,-6.759c1.103,-3.05 -1.265,-10.709 -2.448,-13.663l-0.631,-1.572l10.832,-14.962l1.779,0.2c3.66,0.41 7.413,0.672 11.09,0.836c2.109,0.095 6.902,-2.922 8.641,-4.08c3.273,-2.18 6.631,-4.753 9.598,-7.348l0.399,-0.348l17.88,-7.086l11.266,16.012l-0.788,1.626c-0.821,1.7 -3.439,7.401 -3.875,9.659"/><path d="M454.28,296.988c0,0 -14.248,12.46 -20.398,12.184c-6.151,-0.275 -11.295,-0.853 -11.295,-0.853l-8.789,12.141c0,0 4.326,10.765 2.487,15.849c-1.838,5.084 -5.542,8.095 -5.542,8.095c0,0 8.754,3.589 12.96,2.255c4.204,-1.334 7.258,-7.002 9.693,-12.776c2.435,-5.774 -0.314,-17.379 -0.314,-17.379l5.097,10.901l7.563,1.316l6.737,7.847l0.238,24.201c0,0 31.545,-8.656 33.297,-12.325c1.75,-3.669 -2.245,-9.928 -2.245,-9.928c0,0 1.348,-8.666 0.926,-10.804c-0.422,-2.141 -9.785,-10.446 -10.597,-12.177c-0.811,-1.729 4.154,-11.992 4.154,-11.992l-8.833,-12.554l-15.139,5.999Z" style="fill:#ed8c0e;"/><clipPath id="_clip6"><path d="M454.281,296.988c0,0 -14.249,12.46 -20.399,12.184c-6.151,-0.275 -11.296,-0.853 -11.296,-0.853l-8.787,12.141c0,0 4.325,10.765 2.486,15.849c-1.839,5.083 -5.542,8.095 -5.542,8.095c0,0 8.754,3.589 12.96,2.256c4.204,-1.335 7.258,-7.002 9.693,-12.776c2.435,-5.775 -0.313,-17.38 -0.313,-17.38l5.096,10.901l7.563,1.316l6.737,7.847l0.239,24.201c0,0 31.544,-8.657 33.296,-12.324c1.751,-3.669 -2.245,-9.929 -2.245,-9.929c0,0 1.348,-8.666 0.926,-10.804c-0.422,-2.141 -9.786,-10.445 -10.597,-12.177c-0.811,-1.729 4.154,-11.992 4.154,-11.992l-8.834,-12.554l-15.137,5.999Z"/></clipPath><g clip-path="url(#_clip6)"><path d="M452.742,296.804c0,0 -11.424,13.622 -11.59,17.066c-0.168,3.445 6.42,8.457 6.42,8.457c0,0 -2.017,7.291 -2.729,7.291l-7.676,0c0,0 -2.125,-9.2 -3.821,-11.872c-1.696,-2.674 -1.433,11.47 -4.877,16.168c-3.445,4.697 -15.212,7.811 -15.212,7.811l-3.282,1.91l-1.542,1.542c0,0 11.606,4.408 15.368,2.993c3.763,-1.415 11.053,-10.777 11.445,-12.587c0.392,-1.809 1.331,-4.676 1.331,-4.676l8.74,1.613l4.468,3.695l1.819,3.687l13.492,-17.433c0,0 -5.509,1.868 -10.948,-1.082c-5.439,-2.95 -5.952,-8.541 -5.952,-8.541l4.546,-16.042Z" style="fill:#9d5d0a;"/></g><path d="M459.843,337.853l-1.77,2.354l-4.612,6.137l-0.846,0.806c-0.049,0.032 -17.407,11.388 -17.657,11.901c-0.318,0.653 2.767,2.675 4.971,4.015c4.605,-1.852 18.744,-7.557 18.959,-7.848c0.133,-0.18 0.472,-0.564 0.955,-1.089l0,8.792l-11.718,5.657c0.285,0.4 0.551,0.726 0.756,0.889c0.407,0.325 0.997,0.631 1.648,0.843c0.539,0.177 1.071,0.273 1.498,0.236c0.774,-0.065 4.382,-1.052 7.816,-2.027l0,12.89c-2.362,0.188 -4.435,0.234 -5.466,-0.042c-3.467,-0.924 -4.645,-3.149 -5.037,-4.373c-0.304,-0.075 -0.605,-0.163 -0.9,-0.258c-1.407,-0.46 -2.757,-1.175 -3.765,-1.979c-1.286,-1.029 -2.829,-3.416 -3.686,-4.841l-1.968,0.791l-1.571,-1.472c-0.029,-0.027 -10.378,-9.399 -8.547,-13.146c0.988,-2.021 16.603,-12.357 19.536,-14.287l4.239,-5.64l7.165,-9.53l0,11.221Zm0,16.276l0,8.792l3.927,-1.896l1.085,-0.834l14.914,-17.227l0.098,-0.108l-0.002,-0.002l0.055,-0.066l-5.05,-4.481l-3.737,4.119l0.001,0.001c-0.914,0.931 -8.509,8.677 -11.291,11.702m7.877,-26.754l-7.877,10.478l0,-11.221l2.555,-3.4l0.067,-0.106l9.016,-11.145l2.087,-2.581l2.62,2.053c0.032,0.025 11.503,8.873 13.095,11.136c1.733,2.463 -0.535,11.104 -1.695,15.025c1.427,1.604 3.402,4.197 3.818,6.66c0.573,3.404 -3.853,11.123 -5.337,13.592c-0.071,2.155 -0.279,7.322 -0.702,8.872c-0.709,2.593 -12.128,12.351 -12.16,12.378l-1.614,0.753c-0.027,0.005 -6.58,1.122 -11.75,1.54l0,-12.89c2.621,-0.747 5.141,-1.486 6.222,-1.805l11.668,-8.761l1.526,1.851c0.063,-1.627 0.093,-2.993 0.093,-3.002l0.504,-1.732c0.014,-0.023 5.136,-8.194 4.885,-9.686c-0.274,-1.627 -3.266,-4.388 -3.274,-4.395l-1.588,-1.479l0.675,-2.052c0.011,-0.029 3.49,-10.575 3.202,-10.983c-0.652,-0.926 -5.85,-5.092 -9.102,-7.656l-6.926,8.563l-0.008,-0.007Z" style="fill-rule:nonzero;"/><path d="M465.096,325.254l-9.721,12.93l-4.611,6.136c0,0 -18.163,11.88 -18.834,13.251c-0.669,1.37 7.821,9.206 7.821,9.206c0,0 21.016,-8.422 21.847,-9.549c0.832,-1.128 12.034,-12.529 12.034,-12.529l3.737,-4.117l-15.067,17.402l-19.006,9.175c0,0 2.127,3.87 3.482,4.952c1.356,1.081 3.67,1.965 5.527,1.808c1.856,-0.157 15.279,-4.128 15.279,-4.128l12.174,-9.14l-11.332,10.243l-15.905,4.979c0,0 0.13,1.54 2.715,2.229c2.586,0.69 15.789,-1.565 15.789,-1.565c0,0 10.651,-9.086 11.088,-10.686c0.439,-1.6 0.612,-8.996 0.612,-8.996c0,0 5.817,-9.244 5.349,-12.025c-0.47,-2.786 -4.305,-6.314 -4.305,-6.314c0,0 4.025,-12.172 2.75,-13.984c-1.273,-1.811 -12.407,-10.423 -12.407,-10.423l-9.016,11.145Z" style="fill:#ed8c0e;"/><clipPath id="_clip7"><path d="M465.096,325.254l-9.721,12.93l-4.612,6.137c0,0 -18.162,11.879 -18.833,13.25c-0.67,1.371 7.821,9.207 7.821,9.207c0,0 21.015,-8.422 21.847,-9.551c0.832,-1.126 12.035,-12.528 12.035,-12.528l3.735,-4.116l-15.066,17.401l-19.006,9.175c0,0 2.127,3.87 3.482,4.953c1.356,1.081 3.67,1.963 5.527,1.806c1.856,-0.155 15.279,-4.127 15.279,-4.127l12.174,-9.14l-11.332,10.243l-15.905,4.978c0,0 0.13,1.541 2.715,2.23c2.585,0.69 15.789,-1.565 15.789,-1.565c0,0 10.651,-9.085 11.089,-10.685c0.438,-1.601 0.611,-8.998 0.611,-8.998c0,0 5.817,-9.242 5.349,-12.024c-0.47,-2.786 -4.305,-6.314 -4.305,-6.314c0,0 4.025,-12.172 2.75,-13.984c-1.273,-1.811 -12.408,-10.423 -12.408,-10.423l-9.015,11.145Z"/></clipPath><g clip-path="url(#_clip7)"><path d="M450.764,344.322c0,0 -2.856,6.706 3.228,10.26c6.083,3.555 7.606,3.614 7.606,3.614c0,0 -1.186,2.337 1.162,6.096c2.349,3.756 6.382,5.498 6.382,5.498c0,0 -0.857,4.009 2.511,7.376c3.365,3.365 -0.75,7.639 -4.665,7.796c-3.915,0.154 -22.079,-2.038 -24.113,-2.664c-2.037,-0.626 -12.997,-13.31 -13.937,-14.405c-0.939,-1.097 -4.854,-11.901 -4.854,-11.901c0,0 4.904,-4.435 5.428,-5.428c0.521,-0.992 11.952,-6.316 11.952,-6.316c0,0 11.089,-0.109 9.3,0.074" style="fill:#9d5d0a;"/></g><path d="M281.554,346.292l-38.307,9.04l-0.426,-0.005c-13.486,-0.183 -28.724,-1.689 -41.051,-7.576c-8.79,-4.196 -15.242,-10.182 -20.186,-18.543c-4.154,-7.025 -6.768,-14.83 -9.658,-22.425l-1.091,-2.868l45.091,-23.548l62.017,-12.498l51.456,15.493l0.041,0.013c9.61,3.157 19.205,6.402 28.756,9.729c6.519,2.271 13.06,4.573 19.497,7.068c2.204,0.853 4.443,1.733 6.585,2.731c1.975,0.922 4.409,2.067 4.409,4.654c0,1.321 -1.211,4.266 -1.686,5.536c-1.262,3.383 -2.578,6.752 -3.898,10.113c-3.887,9.915 -7.853,19.803 -11.828,29.684c-5.887,14.633 -11.806,29.252 -17.76,43.859l-3.177,4.74l-2.848,-4.059c-4.131,-5.887 -8.7,-11.414 -14.082,-16.203c-15.74,-13.997 -36.604,-19.216 -56.906,-22.484l-3.118,-0.502l0.27,-4.444l7.9,-7.505Z"/><path d="M277.776,271.425l-60.687,12.231l-41.934,21.899c8.921,23.447 14.186,45.591 67.713,46.319l48.462,-11.44l14.593,-14.991c-5.453,-1.856 -10.672,-4.498 -15.891,-8.871c6.047,3.487 10.37,5.636 16.261,7.392c-3.341,-5.674 -5.037,-10.483 -5.79,-20.326c2.121,8.622 4.32,14.335 8.007,20.203c8.12,-0.747 14.2,-2.594 21.066,-5.543c-5.924,4.27 -12.32,6.495 -21.066,7.145l-31.458,29.891c40.204,6.472 57.725,17.961 73.265,40.111c0,0 34.917,-85.669 34.917,-87.888c0,-2.221 -56.871,-20.9 -56.871,-20.9l-50.587,-15.232Z" style="fill:#007bc3;"/><g><clipPath id="_clip8"><path d="M217.089,283.656l-41.934,21.899c8.921,23.447 14.187,45.592 67.713,46.318l48.461,-11.439l14.593,-14.991c-5.452,-1.856 -10.671,-4.498 -15.89,-8.871c6.047,3.487 10.37,5.637 16.261,7.392c-3.341,-5.674 -5.037,-10.483 -5.79,-20.325c2.121,8.622 4.32,14.334 8.007,20.202c8.12,-0.747 14.2,-2.594 21.066,-5.543c-5.925,4.269 -12.32,6.494 -21.066,7.145l-31.458,29.891c40.204,6.472 57.724,17.961 73.265,40.111c0,0 34.917,-85.669 34.917,-87.889c0,-2.22 -56.871,-20.899 -56.871,-20.899l-50.587,-15.232l-60.687,12.231Z"/></clipPath><g clip-path="url(#_clip8)"><path d="M180.583,300.127c9.487,37.488 42.659,52.14 78.752,49.67c5.805,-0.396 -17.674,4.785 -22.528,4.942c-4.854,0.157 -46.506,-9.081 -52.612,-19.885c-6.107,-10.805 -13.624,-20.671 -13.624,-20.671l0,-5.323l3.759,-7.671l6.253,-1.062Z" style="fill:#ffcb05;"/><path d="M261.073,271.268c0,0 7.753,32.832 14.964,36.594c7.213,3.764 44.053,9.583 53.539,10.435c9.485,0.853 47.661,10.031 51.777,9.36c4.115,-0.667 6.97,-13.242 6.97,-13.242c0,0 -98.976,-14.108 -102.342,-15.875c-3.367,-1.768 -22.38,-27.781 -22.38,-27.781l-2.528,0.509Z" style="fill:#0069b5;"/><path d="M279.173,350.192c1.561,1.643 21.006,-0.549 40.917,9.759c19.912,10.309 29.319,22.224 29.319,22.224c0,0 28.587,-68.886 29.482,-72.415c0.894,-3.526 7.14,1.723 7.14,1.723l-34.114,90.132c0,0 -19.126,-23.202 -32.922,-27.593c-13.797,-4.388 -50.359,-11.879 -50.359,-11.879l0,-4.425l10.537,-7.526Z" style="fill:#ffcb05;"/></g></g><clipPath id="_clip9"><path d="M378.891,309.761c-0.895,3.528 -29.482,72.414 -29.482,72.414c0,0 -9.407,-11.915 -29.319,-22.224c-16.193,-8.384 -32.079,-8.499 -38.286,-9.133l-4.752,4.516c40.204,6.472 57.724,17.961 73.265,40.111c0,0 28.67,-70.341 34.052,-85.198c-1.193,-0.805 -2.792,-1.705 -3.973,-1.705c-0.717,0 -1.281,0.332 -1.505,1.219Z"/></clipPath><g clip-path="url(#_clip9)"><path d="M261.073,271.268c0,0 7.753,32.832 14.964,36.594c7.213,3.764 44.053,9.583 53.539,10.435c9.485,0.853 47.661,10.031 51.777,9.36c4.115,-0.667 6.97,-13.242 6.97,-13.242c0,0 -98.976,-14.108 -102.342,-15.875c-3.367,-1.768 -22.38,-27.781 -22.38,-27.781l-2.528,0.509Z" style="fill:#d2a61e;"/></g><path d="M315.298,97.955l1.206,-1.444l1.849,0.225l-3.055,1.219Zm0,0l3.055,-1.219l21.742,2.648l-0.833,6.805l-21.743,-2.647l-2.221,-5.587Zm24.797,1.429l5.024,0.611l-2.426,4.426l-2.598,-5.037Zm-0.833,6.805l0.833,-6.805l2.598,5.037l-0.045,0.083l-0.118,0.24l-0.213,0.378l-0.289,0.534l-0.36,0.664l-0.425,0.777l-0.486,0.904l-0.527,1.011l-0.589,1.095l-0.635,1.198l-0.672,1.264l-0.693,1.35l-0.736,1.398l-0.757,1.454l-0.764,1.511l-0.788,1.535l-0.796,1.563l-0.786,1.582l-0.793,1.593l-0.773,1.594l-0.759,1.587l-0.753,1.558l-0.715,1.547l-0.685,1.5l-0.65,1.445l-0.61,1.408l-0.565,1.335l-0.499,1.253l-0.443,1.162l-0.383,1.065l-0.315,0.943l-0.229,0.813l-6.648,-1.715l0.311,-1.08l0.368,-1.158l0.437,-1.225l0.497,-1.297l0.554,-1.36l0.591,-1.415l0.636,-1.462l0.677,-1.525l0.713,-1.554l0.741,-1.574l0.753,-1.612l0.786,-1.613l0.799,-1.621l0.796,-1.619l0.811,-1.609l0.796,-1.59l0.789,-1.562l0.789,-1.511l0.759,-1.48l0.734,-1.426l0.721,-1.349l0.673,-1.292l0.634,-1.197l0.59,-1.122l0.553,-1.011l0.486,-0.905l0.425,-0.803l0.359,-0.665l0.29,-0.532l0.212,-0.405l0.145,-0.242l0.045,-0.082l2.598,5.037Zm-21.068,33.861l6.648,1.715l-0.135,0.653l-0.112,0.786l-0.064,0.874l-0.017,0.997l0.043,1.063l0.091,1.136l0.15,1.203l0.208,1.269l0.253,1.326l0.311,1.366l0.365,1.401l0.424,1.446l0.479,1.484l0.534,1.49l0.575,1.52l0.643,1.516l0.682,1.536l0.736,1.537l0.788,1.531l0.825,1.523l0.89,1.495l0.927,1.489l0.977,1.465l1.012,1.422l1.062,1.389l1.096,1.363l1.144,1.306l1.19,1.256l1.224,1.203l1.255,1.144l1.288,1.081l1.332,1.012l-4.036,5.519l-1.574,-1.2l-1.53,-1.267l-1.471,-1.332l-1.412,-1.391l-1.352,-1.443l-1.305,-1.495l-1.257,-1.523l-1.197,-1.575l-1.147,-1.611l-1.085,-1.626l-1.034,-1.649l-0.971,-1.683l-0.933,-1.683l-0.869,-1.693l-0.816,-1.697l-0.764,-1.696l-0.695,-1.704l-0.656,-1.68l-0.588,-1.679l-0.533,-1.645l-0.478,-1.633l-0.42,-1.615l-0.364,-1.581l-0.306,-1.541l-0.236,-1.508l-0.176,-1.472l-0.117,-1.432l-0.044,-1.383l0.016,-1.32l0.091,-1.302l0.166,-1.241l0.269,-1.216Zm22.788,48.516l4.036,-5.519l1.371,0.932l1.466,0.888l1.541,0.858l1.623,0.802l1.683,0.777l1.766,0.712l1.801,0.69l1.868,0.628l1.904,0.597l1.93,0.566l1.965,0.511l1.979,0.485l1.986,0.445l2.001,0.41l2.007,0.389l1.983,0.342l1.974,0.325l1.949,0.283l1.914,0.269l1.889,0.23l1.842,0.22l1.788,0.199l1.728,0.179l1.66,0.16l1.6,0.131l1.519,0.13l1.432,0.119l1.35,0.107l1.249,0.098l1.156,0.092l1.04,0.087l0.948,0.098l-0.674,6.805l-0.866,-0.071l-1.014,-0.087l-1.127,-0.091l-1.25,-0.099l-1.351,-0.108l-1.459,-0.117l-1.545,-0.131l-1.627,-0.158l-1.714,-0.161l-1.782,-0.178l-1.841,-0.198l-1.896,-0.221l-1.942,-0.256l-1.996,-0.269l-2.029,-0.31l-2.056,-0.325l-2.09,-0.369l-2.087,-0.389l-2.109,-0.436l-2.121,-0.473l-2.114,-0.511l-2.099,-0.564l-2.092,-0.593l-2.065,-0.65l-2.03,-0.71l-2.015,-0.743l-1.955,-0.819l-1.926,-0.858l-1.864,-0.936l-1.811,-0.992l-1.735,-1.074l-1.666,-1.148Zm57.274,14.045l0.674,-6.805l0.591,0.038l0.592,-0.005l0.564,-0.048l0.564,-0.088l0.562,-0.111l0.563,-0.16l0.562,-0.192l0.561,-0.234l0.562,-0.261l0.562,-0.298l0.577,-0.347l0.563,-0.366l0.565,-0.396l0.579,-0.436l0.554,-0.462l0.568,-0.483l0.558,-0.515l0.558,-0.534l0.548,-0.56l0.55,-0.559l0.552,-0.582l0.529,-0.601l0.531,-0.606l0.535,-0.606l0.525,-0.605l0.515,-0.616l0.504,-0.621l0.51,-0.614l0.499,-0.6l0.504,-0.601l0.496,-0.584l0.5,-0.578l5.194,4.474l-0.446,0.525l-0.469,0.557l-0.477,0.574l-0.5,0.601l-0.509,0.613l-0.532,0.622l-0.542,0.641l-0.551,0.66l-0.562,0.66l-0.585,0.659l-0.609,0.654l-0.606,0.662l-0.631,0.666l-0.656,0.642l-0.666,0.639l-0.691,0.624l-0.704,0.617l-0.742,0.596l-0.74,0.57l-0.781,0.556l-0.806,0.527l-0.818,0.481l-0.859,0.459l-0.884,0.422l-0.912,0.368l-0.938,0.326l-0.966,0.266l-0.994,0.219l-1.02,0.141l-1.048,0.075l-1.049,0.006l-1.078,-0.066Zm23.371,-15.562l-5.194,-4.474l0.28,-0.373l0.462,-0.735l0.587,-1.014l0.678,-1.262l0.748,-1.478l0.799,-1.652l0.859,-1.834l0.898,-1.96l0.932,-2.094l0.959,-2.211l0.994,-2.298l0.998,-2.369l1.017,-2.419l1.023,-2.455l1.006,-2.473l1.012,-2.473l0.997,-2.469l0.976,-2.421l0.935,-2.385l0.916,-2.301l0.879,-2.229l0.833,-2.112l0.781,-2.006l0.726,-1.867l0.663,-1.699l0.581,-1.541l0.519,-1.351l0.437,-1.143l0.351,-0.907l0.259,-0.678l0.159,-0.42l0.055,-0.144l6.431,2.412l-0.054,0.144l-0.159,0.42l-0.258,0.678l-0.352,0.933l-0.439,1.144l-0.518,1.35l-0.607,1.541l-0.663,1.726l-0.726,1.867l-0.782,2.005l-0.833,2.14l-0.877,2.229l-0.918,2.328l-0.961,2.384l-0.977,2.449l-0.996,2.469l-1.011,2.499l-1.034,2.5l-1.023,2.482l-1.019,2.447l-1.022,2.394l-0.995,2.325l-0.985,2.238l-0.959,2.148l-0.926,2.039l-0.886,1.888l-0.853,1.76l-0.802,1.585l-0.758,1.423l-0.721,1.255l-0.705,1.084l-0.737,0.961Zm18.125,-59.247l1.272,-3.36l3.303,1.418l-4.575,1.942Zm0,0l4.575,-1.942l15.395,6.608l-2.717,6.297l-15.396,-6.608l-1.857,-4.355Zm19.97,4.666l2.323,0.998l-0.264,2.5l-2.059,-3.498Zm-2.717,6.297l2.717,-6.297l2.059,3.498l-0.016,0.155l-0.047,0.454l-0.079,0.734l-0.104,0.995l-0.131,1.236l-0.154,1.459l-0.175,1.664l-0.196,1.848l-0.213,2.015l-0.229,2.161l-0.243,2.291l-0.253,2.4l-0.265,2.49l-0.271,2.562l-0.277,2.615l-0.283,2.648l-0.282,2.663l-0.285,2.674l-0.28,2.635l-0.278,2.595l-0.271,2.533l-0.264,2.454l-0.253,2.355l-0.242,2.238l-0.227,2.101l-0.212,1.946l-0.195,1.772l-0.174,1.592l-0.152,1.366l-0.128,1.148l-0.104,0.899l-0.088,0.644l-6.809,-0.857l0.062,-0.59l0.103,-0.872l0.128,-1.122l0.154,-1.367l0.173,-1.564l0.194,-1.773l0.212,-1.946l0.228,-2.101l0.241,-2.237l0.254,-2.356l0.263,-2.453l0.271,-2.534l0.278,-2.594l0.281,-2.637l0.283,-2.646l0.284,-2.663l0.282,-2.648l0.277,-2.614l0.272,-2.563l0.263,-2.49l0.255,-2.4l0.243,-2.29l0.228,-2.162l0.214,-2.015l0.195,-1.848l0.175,-1.663l0.154,-1.46l0.131,-1.236l0.105,-0.995l0.078,-0.734l0.048,-0.454l0.017,-0.155l2.058,3.496Zm-8.404,55.686l6.809,0.857l-0.171,0.907l-0.252,0.882l-0.314,0.89l-0.374,0.946l-0.426,1.007l-0.49,1.08l-0.548,1.13l-0.588,1.2l-0.649,1.252l-0.666,1.311l-0.72,1.35l-0.753,1.396l-0.77,1.436l-0.809,1.47l-0.817,1.499l-0.831,1.506l-0.843,1.521l-0.849,1.531l-0.852,1.532l-0.848,1.531l-0.841,1.52l-0.83,1.491l-0.812,1.483l-0.777,1.441l-0.764,1.406l-0.721,1.366l-0.685,1.307l-0.644,1.252l-0.599,1.194l-0.536,1.115l-0.495,1.03l-0.424,0.939l-6.297,-2.707l0.477,-1.071l0.522,-1.138l0.591,-1.196l0.626,-1.247l0.671,-1.306l0.712,-1.36l0.747,-1.393l0.764,-1.434l0.804,-1.468l0.813,-1.482l0.828,-1.518l0.841,-1.52l0.849,-1.53l0.85,-1.533l0.851,-1.531l0.842,-1.521l0.833,-1.506l0.815,-1.471l0.783,-1.444l0.77,-1.409l0.727,-1.37l0.691,-1.323l0.667,-1.257l0.596,-1.198l0.56,-1.12l0.495,-1.05l0.434,-0.945l0.375,-0.847l0.293,-0.732l0.206,-0.596l0.117,-0.398l0.036,-0.157Zm-20.186,39.071l6.297,2.707l-0.361,0.887l-0.339,0.847l-0.304,0.837l-0.273,0.798l-0.241,0.773l-0.226,0.748l-0.184,0.734l-0.172,0.695l-0.132,0.667l-0.123,0.64l-0.1,0.613l-0.093,0.583l-0.063,0.556l-0.043,0.54l-0.04,0.497l-0.027,0.468l-0.014,0.437l-0.002,0.434l0.01,0.375l0.017,0.358l0.024,0.314l0.018,0.293l0.033,0.262l0.023,0.215l0.039,0.209l0.024,0.162l0.023,0.128l0.019,0.092l0.014,0.071l0.009,0.037l0.001,0l-0.022,-0.061l-6.594,1.902l-0.031,-0.099l-0.028,-0.108l-0.036,-0.143l-0.041,-0.179l-0.047,-0.227l-0.049,-0.262l-0.051,-0.296l-0.038,-0.315l-0.051,-0.376l-0.034,-0.395l-0.043,-0.429l-0.024,-0.473l-0.018,-0.491l-0.008,-0.538l0.002,-0.54l0.013,-0.598l0.025,-0.629l0.042,-0.658l0.071,-0.674l0.087,-0.716l0.094,-0.745l0.128,-0.773l0.149,-0.801l0.187,-0.828l0.197,-0.855l0.239,-0.868l0.253,-0.909l0.294,-0.934l0.327,-0.958l0.359,-0.972l0.392,-1.009l0.442,-1.02Zm-2.802,18.818l6.594,-1.902l-0.283,2.585l-0.453,0.805l-0.474,0.754l-0.468,0.69l-0.479,0.635l-0.489,0.608l-0.515,0.545l-0.514,0.501l-0.541,0.46l-0.543,0.411l-0.544,0.366l-0.549,0.324l-0.526,0.289l-0.533,0.255l-0.512,0.214l-0.479,0.19l-0.476,0.184l-0.458,0.155l-0.442,0.156l-0.428,0.165l-0.426,0.146l-0.415,0.176l-0.416,0.168l-0.42,0.192l-0.436,0.205l-0.443,0.238l-0.46,0.274l-0.482,0.301l-0.517,0.345l-0.539,0.382l-0.564,0.448l-0.588,0.505l-0.628,0.555l-4.682,-5.011l0.789,-0.714l0.777,-0.64l0.751,-0.582l0.728,-0.543l0.707,-0.479l0.696,-0.435l0.676,-0.381l0.657,-0.345l0.626,-0.312l0.607,-0.273l0.577,-0.248l0.55,-0.203l0.508,-0.2l0.48,-0.164l0.442,-0.156l0.405,-0.155l0.368,-0.13l0.344,-0.137l0.297,-0.134l0.263,-0.121l0.257,-0.127l0.227,-0.138l0.222,-0.151l0.22,-0.17l0.217,-0.192l0.246,-0.233l0.245,-0.277l0.274,-0.314l0.289,-0.393l0.309,-0.45l0.313,-0.512l0.344,-0.591l-0.283,2.586Zm-14.128,7.314l4.682,5.011l-0.54,0.499l-0.573,0.531l-0.605,0.562l-0.634,0.589l-0.661,0.614l-0.685,0.638l-0.709,0.647l-0.73,0.679l-0.749,0.711l-0.766,0.713l-0.781,0.726l-0.794,0.738l-0.805,0.746l-0.814,0.755l-0.822,0.76l-0.826,0.764l-0.843,0.765l-0.83,0.778l-0.831,0.761l-0.826,0.757l-0.836,0.75l-0.813,0.756l-0.808,0.73l-0.807,0.719l-0.783,0.716l-0.78,0.687l-0.75,0.681l-0.745,0.647l-0.71,0.638l-0.701,0.599l-0.676,0.585l-0.649,0.557l-4.467,-5.198l0.622,-0.53l0.649,-0.559l0.673,-0.599l0.711,-0.61l0.718,-0.647l0.75,-0.655l0.754,-0.687l0.782,-0.69l0.782,-0.718l0.805,-0.73l0.815,-0.728l0.808,-0.751l0.827,-0.756l0.83,-0.763l0.83,-0.75l0.816,-0.766l0.826,-0.762l0.822,-0.761l0.815,-0.755l0.805,-0.747l0.793,-0.737l0.782,-0.727l0.766,-0.713l0.748,-0.683l0.73,-0.68l0.709,-0.673l0.687,-0.638l0.659,-0.615l0.634,-0.589l0.604,-0.562l0.575,-0.531l0.54,-0.499Zm-23.667,21.611l4.467,5.198l-0.603,0.579l-0.488,0.634l-0.411,0.68l-0.333,0.775l-0.267,0.846l-0.2,0.937l-0.144,1.033l-0.075,1.108l-0.017,1.175l0.042,1.222l0.09,1.275l0.112,1.29l0.147,1.326l0.157,1.344l0.158,1.348l0.144,1.349l0.132,1.34l0.081,1.352l0.03,1.326l-0.03,1.321l-0.132,1.336l-0.258,1.329l-0.436,1.34l-0.642,1.304l-0.897,1.221l-1.153,1.061l-1.354,0.827l-1.511,0.586l-1.616,0.35l-1.718,0.133l-1.83,-0.038l-1.972,-0.218l0.996,-6.779l1.459,0.163l1.187,0.039l0.91,-0.079l0.646,-0.136l0.409,-0.157l0.249,-0.156l0.159,-0.152l0.143,-0.202l0.157,-0.312l0.14,-0.457l0.124,-0.63l0.077,-0.774l0.03,-0.92l-0.03,-1.032l-0.081,-1.11l-0.105,-1.207l-0.143,-1.267l-0.157,-1.322l-0.159,-1.37l-0.147,-1.407l-0.139,-1.453l-0.089,-1.46l-0.043,-1.49l0.017,-1.497l0.102,-1.51l0.199,-1.515l0.334,-1.527l0.483,-1.516l0.655,-1.469l0.842,-1.432l1.052,-1.33l1.25,-1.223Zm-9.531,29.91l-0.996,6.779l-2.13,-0.308l-2.341,-0.313l-2.495,-0.305l-2.666,-0.327l-2.811,-0.333l-2.954,-0.343l-3.07,-0.354l-3.175,-0.363l-3.266,-0.377l-3.359,-0.39l-3.409,-0.405l-3.474,-0.423l-3.513,-0.452l-3.539,-0.457l-3.564,-0.476l-3.551,-0.497l-3.552,-0.519l-3.523,-0.555l-3.484,-0.564l-3.445,-0.604l-3.379,-0.616l-3.3,-0.658l-3.22,-0.685l-3.117,-0.715l-3.009,-0.747l-2.894,-0.779l-2.762,-0.823l-2.604,-0.873l-2.473,-0.907l-2.305,-0.972l-2.133,-1.02l-1.95,-1.102l3.579,-5.841l1.547,0.861l1.784,0.86l2.007,0.836l2.204,0.828l2.416,0.791l2.575,0.77l2.73,0.753l2.876,0.72l3.008,0.687l3.113,0.66l3.22,0.63l3.298,0.616l3.364,0.578l3.43,0.565l3.471,0.528l3.496,0.518l3.524,0.497l3.511,0.476l3.512,0.457l3.486,0.426l3.448,0.421l3.409,0.407l3.332,0.39l3.265,0.376l3.175,0.366l3.071,0.353l2.953,0.343l2.837,0.332l2.693,0.326l2.551,0.333l2.367,0.312l2.211,0.308Zm-93.884,-17.324l-3.579,5.841l-0.76,-0.534l-0.694,-0.595l-0.697,-0.672l-0.732,-0.768l-0.798,-0.853l-0.83,-0.957l-0.88,-1.05l-0.919,-1.119l-0.937,-1.197l-0.959,-1.261l-0.986,-1.317l-0.977,-1.364l-0.973,-1.415l-0.973,-1.43l-0.937,-1.461l-0.919,-1.471l-0.879,-1.484l-0.831,-1.488l-0.772,-1.469l-0.72,-1.454l-0.643,-1.444l-0.559,-1.437l-0.479,-1.392l-0.363,-1.395l-0.252,-1.386l-0.105,-1.396l0.078,-1.409l0.351,-1.466l0.714,-1.434l1.11,-1.258l1.411,-0.926l1.544,-0.545l1.561,6.672l-0.118,0.035l0.097,-0.066l0.127,-0.134l0.04,-0.067l-0.028,0.127l-0.024,0.391l0.05,0.591l0.144,0.771l0.256,0.912l0.345,1.045l0.451,1.115l0.536,1.202l0.611,1.267l0.692,1.308l0.75,1.328l0.798,1.349l0.839,1.363l0.883,1.355l0.893,1.349l0.918,1.308l0.924,1.284l0.905,1.237l0.906,1.18l0.883,1.115l0.838,1.04l0.798,0.944l0.749,0.85l0.665,0.744l0.598,0.607l0.481,0.458l0.316,0.274l0.061,0.052Zm-16.384,-26.334l-1.561,-6.672l0.088,-0.019l0.139,-0.045l0.16,-0.069l0.208,-0.091l0.228,-0.124l0.246,-0.145l0.276,-0.149l0.279,-0.191l0.294,-0.191l0.294,-0.22l0.308,-0.23l0.304,-0.226l0.302,-0.261l0.311,-0.255l0.305,-0.261l0.299,-0.277l0.29,-0.264l0.282,-0.266l0.285,-0.279l0.261,-0.261l0.261,-0.272l0.234,-0.251l0.232,-0.245l0.204,-0.236l0.185,-0.211l0.168,-0.213l0.135,-0.173l0.114,-0.157l0.08,-0.114l0.056,-0.069l-0.009,-0.009l-0.047,0.107l6.298,2.759l-0.195,0.403l-0.208,0.331l-0.191,0.31l-0.213,0.301l-0.222,0.291l-0.242,0.307l-0.248,0.293l-0.268,0.319l-0.283,0.316l-0.287,0.324l-0.315,0.333l-0.314,0.325l-0.341,0.342l-0.339,0.332l-0.363,0.346l-0.372,0.346l-0.379,0.33l-0.386,0.34l-0.391,0.336l-0.41,0.314l-0.412,0.335l-0.415,0.31l-0.428,0.299l-0.429,0.3l-0.441,0.271l-0.438,0.283l-0.461,0.251l-0.47,0.233l-0.476,0.224l-0.511,0.203l-0.515,0.178l-0.546,0.154Zm11.509,-9.58l-6.298,-2.759l0.236,-0.453l0.235,-0.376l0.221,-0.311l0.217,-0.287l0.239,-0.276l0.232,-0.275l0.239,-0.278l0.256,-0.263l0.258,-0.293l0.259,-0.277l0.287,-0.303l0.284,-0.289l0.281,-0.313l0.29,-0.312l0.297,-0.324l0.303,-0.333l0.307,-0.329l0.296,-0.34l0.296,-0.349l0.298,-0.358l0.295,-0.353l0.293,-0.361l0.274,-0.355l0.267,-0.362l0.261,-0.369l0.25,-0.362l0.227,-0.368l0.228,-0.359l0.201,-0.365l0.186,-0.357l0.182,-0.347l0.151,-0.336l6.324,2.652l-0.258,0.578l-0.263,0.562l-0.294,0.544l-0.309,0.525l-0.309,0.52l-0.333,0.502l-0.332,0.496l-0.341,0.476l-0.349,0.469l-0.354,0.463l-0.346,0.442l-0.349,0.432l-0.351,0.412l-0.351,0.402l-0.35,0.394l-0.335,0.383l-0.329,0.36l-0.324,0.351l-0.316,0.338l-0.308,0.314l-0.285,0.315l-0.26,0.277l-0.259,0.277l-0.231,0.238l-0.202,0.238l-0.185,0.195l-0.152,0.17l-0.104,0.141l-0.082,0.099l-0.032,0.043l0.033,-0.052l0.088,-0.164Zm8.172,-10.74l-6.324,-2.652l0.143,-0.356l0.117,-0.317l0.094,-0.295l0.071,-0.247l0.062,-0.227l0.029,-0.179l0.021,-0.148l0.017,-0.129l0.012,-0.087l-0.004,-0.084l-0.007,-0.028l-0.008,-0.014l0.005,-0.014l0.004,0.012l-0.005,-0.003l0.01,0.019l-0.001,-0.009l-0.008,-0.001l-0.017,-0.02l-0.024,-0.04l-0.042,-0.047l-0.048,-0.068l-0.078,-0.077l-0.082,-0.088l-0.109,-0.112l-0.124,-0.122l-0.151,-0.137l-0.15,-0.163l-0.161,-0.177l-0.199,-0.194l-0.194,-0.223l-0.19,-0.238l5.356,-4.261l0.055,0.052l0.06,0.063l0.063,0.084l0.108,0.098l0.122,0.109l0.125,0.136l0.151,0.15l0.163,0.166l0.189,0.195l0.187,0.211l0.208,0.229l0.205,0.261l0.212,0.281l0.205,0.315l0.197,0.349l0.189,0.359l0.178,0.408l0.14,0.404l0.13,0.445l0.102,0.442l0.062,0.469l0.034,0.484l0.005,0.46l-0.013,0.487l-0.043,0.479l-0.075,0.496l-0.11,0.502l-0.116,0.494l-0.152,0.514l-0.174,0.509l-0.199,0.533l-0.223,0.542Zm-1.985,-10.726l-5.356,4.261l-0.308,-0.407l-0.231,-0.386l-0.207,-0.365l-0.181,-0.381l-0.183,-0.381l-0.158,-0.396l-0.158,-0.405l-0.159,-0.429l-0.146,-0.436l-0.147,-0.441l-0.146,-0.459l-0.145,-0.474l-0.145,-0.476l-0.129,-0.5l-0.141,-0.497l-0.126,-0.506l-0.137,-0.513l-0.122,-0.504l-0.129,-0.521l-0.116,-0.521l-0.125,-0.521l-0.105,-0.506l-0.104,-0.516l-0.111,-0.509l-0.093,-0.502l-0.088,-0.48l-0.094,-0.481l-0.076,-0.482l-0.069,-0.454l-0.076,-0.437l-0.056,-0.434l-0.061,-0.426l6.835,-0.803l0.035,0.319l0.056,0.353l0.048,0.383l0.069,0.401l0.077,0.401l0.069,0.429l0.086,0.451l0.093,0.449l0.085,0.456l0.102,0.461l0.107,0.479l0.097,0.468l0.114,0.469l0.105,0.466l0.12,0.478l0.111,0.459l0.126,0.451l0.114,0.444l0.13,0.42l0.117,0.422l0.119,0.394l0.118,0.379l0.12,0.361l0.12,0.329l0.105,0.294l0.105,0.272l0.103,0.234l0.077,0.194l0.073,0.14l0.045,0.097l0.015,0.011l-0.068,-0.076Zm-2.793,-11.288l-6.835,0.803l-0.015,-0.087l-0.062,-0.258l-0.118,-0.369l-0.159,-0.463l-0.209,-0.538l-0.243,-0.595l-0.274,-0.647l-0.313,-0.693l-0.325,-0.722l-0.361,-0.759l-0.376,-0.778l-0.406,-0.79l-0.403,-0.813l-0.412,-0.816l-0.431,-0.802l-0.418,-0.809l-0.431,-0.797l-0.412,-0.794l-0.419,-0.76l-0.393,-0.734l-0.394,-0.702l-0.375,-0.679l-0.342,-0.625l-0.331,-0.593l-0.304,-0.527l-0.274,-0.486l-0.228,-0.411l-0.204,-0.358l-0.165,-0.288l-0.121,-0.197l-0.075,-0.131l-0.012,-0.045l5.947,-3.402l0.039,0.044l0.076,0.131l0.121,0.225l0.164,0.286l0.204,0.359l0.255,0.437l0.274,0.485l0.304,0.556l0.332,0.592l0.368,0.652l0.376,0.679l0.393,0.73l0.42,0.76l0.419,0.786l0.439,0.795l0.431,0.824l0.446,0.835l0.43,0.856l0.438,0.843l0.43,0.839l0.406,0.845l0.404,0.831l0.387,0.812l0.379,0.802l0.341,0.774l0.328,0.754l0.296,0.729l0.263,0.698l0.24,0.678l0.199,0.664l0.169,0.66l0.122,0.704Zm-15.84,-17.263l-1.148,-1.984l1.403,-1.807l-0.255,3.791Zm5.947,-3.402l-5.947,3.402l0.255,-3.791l0.017,-0.025l0.088,-0.1l0.127,-0.186l0.192,-0.239l0.224,-0.304l0.267,-0.364l0.319,-0.421l0.342,-0.475l0.374,-0.525l0.402,-0.571l0.426,-0.601l0.448,-0.652l0.464,-0.675l0.478,-0.72l0.488,-0.735l0.482,-0.76l0.496,-0.781l0.496,-0.785l0.478,-0.811l0.47,-0.81l0.471,-0.802l0.442,-0.82l0.409,-0.805l0.4,-0.788l0.373,-0.78l0.33,-0.742l0.296,-0.727l0.258,-0.696l0.217,-0.646l0.159,-0.594l0.123,-0.539l0.072,-0.465l6.835,0.83l-0.152,0.92l-0.205,0.914l-0.266,0.916l-0.298,0.915l-0.339,0.91l-0.377,0.914l-0.41,0.931l-0.426,0.914l-0.454,0.921l-0.49,0.913l-0.495,0.899l-0.499,0.91l-0.523,0.889l-0.532,0.866l-0.523,0.866l-0.524,0.834l-0.535,0.813l-0.515,0.789l-0.504,0.747l-0.492,0.728l-0.474,0.679l-0.454,0.654l-0.429,0.598l-0.4,0.552l-0.369,0.501l-0.32,0.448l-0.293,0.392l-0.251,0.33l-0.192,0.267l-0.154,0.185l-0.088,0.127l-0.043,0.052l0.255,-3.791Zm11.771,-18.503l-6.835,-0.83l0.109,-0.766l0.118,-0.888l0.138,-0.988l0.157,-1.096l0.177,-1.18l0.193,-1.284l0.222,-1.367l0.224,-1.429l0.238,-1.51l0.251,-1.556l0.262,-1.622l0.272,-1.651l0.282,-1.702l0.289,-1.717l0.296,-1.75l0.302,-1.75l0.307,-1.768l0.309,-1.753l0.327,-1.755l0.312,-1.724l0.314,-1.711l0.311,-1.676l0.311,-1.635l0.305,-1.586l0.316,-1.529l0.296,-1.462l0.289,-1.404l0.281,-1.309l0.285,-1.248l0.274,-1.139l0.251,-1.061l0.265,-0.949l6.62,1.795l-0.211,0.842l-0.25,0.954l-0.248,1.085l-0.258,1.167l-0.281,1.283l-0.289,1.35l-0.296,1.436l-0.288,1.502l-0.307,1.559l-0.309,1.608l-0.314,1.65l-0.311,1.684l-0.315,1.723l-0.298,1.729l-0.31,1.752l-0.306,1.742l-0.301,1.75l-0.298,1.724l-0.289,1.716l-0.281,1.676l-0.272,1.651l-0.262,1.595l-0.251,1.556l-0.237,1.483l-0.225,1.429l-0.196,1.34l-0.192,1.257l-0.177,1.181l-0.157,1.068l-0.139,0.962l-0.117,0.834l-0.083,0.712Zm8.068,-45l-6.62,-1.795l0.391,-1.195l0.507,-1.235l0.614,-1.263l0.709,-1.339l0.811,-1.401l0.89,-1.47l0.96,-1.527l1.033,-1.575l1.099,-1.627l1.142,-1.655l1.202,-1.688l1.226,-1.71l1.256,-1.71l1.275,-1.712l1.286,-1.707l1.289,-1.702l1.267,-1.65l1.264,-1.629l1.24,-1.581l1.191,-1.527l1.162,-1.448l1.096,-1.386l1.048,-1.302l0.963,-1.195l0.885,-1.103l0.809,-0.977l0.698,-0.853l0.605,-0.733l0.477,-0.576l0.35,-0.424l0.217,-0.275l0.088,-0.09l5.274,4.368l-0.06,0.089l-0.218,0.248l-0.35,0.424l-0.476,0.577l-0.579,0.706l-0.698,0.853l-0.781,0.977l-0.885,1.077l-0.963,1.194l-1.022,1.275l-1.095,1.359l-1.135,1.449l-1.192,1.5l-1.212,1.554l-1.238,1.602l-1.268,1.649l-1.261,1.65l-1.26,1.679l-1.248,1.685l-1.228,1.684l-1.2,1.657l-1.149,1.634l-1.113,1.601l-1.045,1.547l-0.981,1.495l-0.906,1.42l-0.808,1.335l-0.704,1.241l-0.602,1.124l-0.478,0.996l-0.346,0.805l-0.203,0.606Z" style="fill-rule:nonzero;"/><path d="M317.935,100.139c0,0 -25.917,31.05 -28.377,39.979c-2.46,8.928 -7.273,38.276 -8.175,45.482c-0.903,7.205 -11.327,20.619 -11.327,20.619c0,0 8.976,15.503 9.449,19.366c0.472,3.862 2.263,11.437 3.532,13.016c1.269,1.58 3.585,2.365 1.501,7.269c-2.084,4.905 -7.511,9.23 -8.159,10.687c-0.65,1.46 -5.812,6.843 -9.141,7.623c-9.817,2.305 11.524,30.243 15.376,32.592c17.484,10.664 73.041,14.525 95.176,17.792c19.443,2.872 1.507,-21.559 12.261,-30.699c6.629,-5.636 18.194,-16.552 23.775,-21.707c7.698,-7.108 10.792,-2.954 15.084,-10.77c0,0 -1.819,-6.221 2.653,-16.512c4.472,-10.291 19.793,-34.921 20.443,-39.997c0.649,-5.075 6.357,-59.262 6.357,-59.262l-15.396,-6.609c0,0 -18.936,50.039 -23.938,55.805c-5,5.765 -11.448,15.276 -20.437,14.395c-8.99,-0.881 -39.856,-1.991 -55.592,-13.402c-15.736,-11.409 -23.961,-35.378 -21.482,-44.899c2.478,-9.521 18.161,-38.121 18.161,-38.121l-21.744,-2.647Z" style="fill:#ffcb05;"/><clipPath id="_clip10"><path d="M289.558,140.118c-2.46,8.928 -7.273,38.276 -8.176,45.482c-0.902,7.205 -11.326,20.619 -11.326,20.619c0,0 8.976,15.502 9.449,19.366c0.472,3.862 2.263,11.437 3.533,13.016c1.268,1.58 3.584,2.365 1.501,7.27c-2.084,4.904 -7.512,9.229 -8.16,10.686c-0.65,1.46 -5.812,6.843 -9.14,7.624c-9.818,2.304 11.522,30.242 15.375,32.591c17.484,10.664 73.041,14.525 95.176,17.793c19.443,2.871 1.507,-21.56 12.261,-30.701c6.629,-5.634 18.194,-16.55 23.775,-21.705c7.698,-7.109 10.792,-2.955 15.084,-10.771c0,0 -1.819,-6.221 2.653,-16.512c4.472,-10.291 19.792,-34.921 20.442,-39.997c0.65,-5.075 6.359,-59.262 6.359,-59.262l-15.397,-6.609c0,0 -18.937,50.039 -23.938,55.804c-5,5.766 -11.448,15.278 -20.437,14.397c-8.989,-0.883 -39.856,-1.992 -55.592,-13.402c-15.737,-11.411 -23.962,-35.379 -21.483,-44.899c2.479,-9.522 18.162,-38.122 18.162,-38.122l-21.744,-2.647c0,0 -25.917,31.05 -28.377,39.979Z"/></clipPath><g clip-path="url(#_clip10)"><path d="M322.973,99.081c-4.933,5.958 -13.35,16.809 -17.975,22.988c-2.773,3.706 -5.52,7.489 -8.032,11.378c-1.254,1.942 -3.466,5.368 -4.079,7.588c-0.812,2.948 -1.424,6.054 -2.019,9.054c-0.84,4.231 -1.612,8.479 -2.356,12.728c-0.81,4.624 -1.585,9.257 -2.321,13.893c-0.49,3.093 -0.992,6.212 -1.382,9.319c-0.733,5.864 -10.708,19.069 -14.851,24.684c2.989,5.242 8.276,14.872 8.742,18.684c0.275,2.253 1.88,7.074 2.994,8.9c0.234,0.278 -0.28,3.655 -0.028,3.913c4.806,4.929 1.301,2.335 -2.575,7.9c-1.179,1.691 -4.174,5.828 -5.578,7.334c-2.437,-0.223 -10.383,6.409 -14.941,10.076c-0.136,1.104 7.955,14.37 9.786,17.177c0.424,0.65 12.004,12.605 14.256,14.136c5.08,3.1 14.227,6.775 20.037,7.835c8.601,1.571 19.481,7.835 28.191,8.584c13.985,1.204 28.746,5.913 43.977,9.146c2.038,-0.213 14.731,-10.087 17.533,-10.74c-1.337,-4.653 -5.81,-19.235 -4.603,-22.757c1.187,-3.47 4.129,-5.448 6.825,-7.986c7.818,-7.362 14.187,-13.19 22.076,-20.475c6.108,-2.171 8.651,0.26 9.185,-7.08c1.276,-0.576 -1.265,-3.475 -0.565,-4.585c-0.18,-1.312 -0.205,-2.75 -0.162,-3.91c0.168,-4.581 1.469,-9.182 3.287,-13.365c1.238,-2.847 2.72,-5.66 4.181,-8.399c1.812,-3.395 3.683,-6.761 5.553,-10.126c2.426,-4.371 4.884,-8.746 7.178,-13.187c0.744,-1.441 3.061,-5.83 3.271,-7.347c0.446,-3.48 0.791,-7.001 1.169,-10.489c0.681,-6.292 1.353,-12.582 2.023,-18.874c0.968,-9.097 1.932,-23.518 2.892,-32.615l-7.571,-3.878c-3.276,8.474 -8.754,21.938 -12.197,30.353c-2.374,5.808 -4.799,11.625 -7.407,17.332c-0.999,2.189 -2.03,4.382 -3.153,6.51c-0.742,1.406 -1.654,3.093 -2.696,4.295c-2.265,2.613 -4.35,5.323 -6.763,7.819c-4.445,4.597 -9.9,8.411 -16.62,7.751c-4.658,-0.456 -9.322,-0.733 -13.988,-1.23c-6.879,-0.732 -13.779,-1.756 -20.511,-3.363c-7.796,-1.86 -16.245,-4.708 -22.784,-9.449c-3.945,-2.861 -7.4,-6.401 -10.362,-10.261c-4.647,-6.053 -8.366,-13.252 -10.677,-20.525c-1.644,-5.184 -3.158,-12.403 -1.758,-17.78c0.733,-2.816 1.987,-5.768 3.15,-8.435c1.533,-3.518 3.196,-6.994 4.894,-10.437c2.572,-5.215 8.836,-15.136 11.591,-20.277l-14.837,-1.807Z" style="fill:#007bc3;"/></g><path d="M458.361,284.963c0.591,-2.124 2.767,-4.487 4.399,-5.93l1.171,-1.036l1.527,0.339c5.309,1.179 10.311,4.271 13.851,8.387c2.859,3.32 5.454,8.268 4.062,12.747c-1.237,3.985 -6.77,10.613 -9.525,13.826c-2.361,2.752 -4.86,5.489 -7.488,7.991c-1.597,1.521 -4.379,4.211 -6.687,4.317c-2.894,0.134 -6.105,-2.434 -8.136,-4.287c-1.641,-1.499 -4.224,-4.15 -5.094,-6.203c-0.884,-2.085 0.619,-5.485 1.416,-7.454c1.275,-3.152 2.722,-6.268 4.171,-9.344c1.374,-2.918 2.781,-5.822 4.179,-8.729c0.503,-1.044 1.007,-2.092 1.496,-3.143c0.213,-0.459 0.488,-1.003 0.658,-1.481"/><path d="M464.792,281.333c0,0 -3.005,2.657 -3.481,4.481c-0.477,1.825 -12.979,25.893 -12.044,28.103c0.937,2.211 7.379,8.753 10.263,8.62c2.884,-0.134 19.212,-18.511 20.909,-23.978c1.697,-5.466 -5.7,-15.018 -15.647,-17.226" style="fill:#ed8c0e;"/><path d="M263.083,490.214c-0.032,0.208 -0.072,0.416 -0.121,0.621c-0.368,1.539 -1.322,3.18 -2.646,4.2c0.015,0.076 0.029,0.148 0.043,0.218c0.253,1.31 0.527,2.616 0.797,3.922c0.75,3.623 1.49,7.249 2.129,10.895c0.798,4.556 2.146,12.399 1.201,16.887c-0.468,2.223 -1.153,4.48 -1.839,6.645c-0.897,2.833 -1.88,5.647 -2.925,8.429c-1.366,3.632 -2.86,7.339 -4.605,10.806c-1.102,2.191 -2.999,5.975 -5.597,6.588c-2.185,0.515 -6.559,-0.963 -8.623,-1.702c-4.795,-1.716 -9.513,-4.048 -13.883,-6.652c-12.58,-7.497 -23.378,-18.034 -30.183,-31.086c-4.857,-9.316 -10.033,-21.196 -10.803,-31.824c-0.287,-3.961 0.03,-10.038 2.93,-13.145c1.422,-1.524 3.249,-3.028 4.843,-4.383c1.417,-1.207 2.85,-2.4 4.291,-3.581l-0.368,-6.937l15.059,-9.307l0.127,-4.81l11.286,-4.73c1.46,-5.401 3.097,-10.832 4.865,-16.125c1.267,-3.795 2.645,-7.702 4.331,-11.332c1.131,-2.435 3.045,-6.433 6.029,-6.856c2.809,-0.399 6.443,0.247 9.171,0.94c3.882,0.988 7.771,2.536 11.226,4.567c1.933,1.139 3.775,2.458 5.424,3.981c4.244,3.925 8.437,7.922 12.606,11.929c3.243,3.119 6.479,6.255 9.657,9.44c1.152,1.158 2.305,2.322 3.421,3.514c0.648,0.689 1.502,1.571 1.998,2.371c1.67,2.705 -1.068,5.482 -2.873,7.222c-2.169,2.091 -4.59,4.038 -6.94,5.927c-1.939,1.557 -3.899,3.091 -5.826,4.664c-0.953,0.778 -2.483,1.953 -3.26,2.883c-0.352,0.424 -0.735,1.127 -1.01,1.606c-0.632,1.107 -1.225,2.242 -1.807,3.375c-0.174,0.34 -0.348,0.68 -0.52,1.021c0.312,0.589 0.617,1.178 0.914,1.767l0.082,0.162l0.07,0.183c0.747,1.977 0.424,4.188 -0.672,5.967c-0.498,0.81 -1.171,1.537 -1.963,2.061c-0.141,0.997 -0.5,1.968 -1.033,2.836c-0.533,0.863 -1.265,1.642 -2.129,2.173c-0.312,1.734 -1.37,3.602 -2.874,4.67"/><path d="M226.603,443.37c0,0 8.72,-32.935 13.221,-33.576c4.502,-0.64 16.328,2.151 23.471,8.756c7.142,6.605 25.819,24.441 27.188,26.657c1.37,2.214 -16.022,14.188 -18.659,17.349c-2.639,3.16 -14.442,29.126 -14.644,30.781c-0.201,1.655 6.055,25.64 4.5,33.03c-1.555,7.388 -9.614,29.51 -12.819,30.266c-3.205,0.757 -34.643,-9.501 -49.486,-37.975c-14.844,-28.471 -10.346,-39.516 -8.32,-41.686c2.026,-2.169 9.978,-8.615 9.978,-8.615l-0.355,-6.694l14.931,-9.229l0.119,-4.508l10.875,-4.556Z"/><g><clipPath id="_clip11"><path d="M239.825,409.794c-4.502,0.641 -13.222,33.576 -13.222,33.576l-10.875,4.556l-0.119,4.507l-14.931,9.229l0.355,6.695c0,0 -7.953,6.446 -9.979,8.615c-2.025,2.17 -6.523,13.215 8.321,41.687c14.843,28.473 46.281,38.73 49.486,37.974c3.205,-0.757 11.264,-22.878 12.819,-30.266c1.555,-7.389 -4.701,-31.375 -4.499,-33.031c0.201,-1.654 12.004,-27.62 14.643,-30.78c2.637,-3.161 20.028,-15.135 18.659,-17.349c-1.369,-2.217 -20.046,-20.052 -27.189,-26.657c-6.48,-5.992 -16.814,-8.845 -22.037,-8.845c-0.534,0 -1.015,0.03 -1.432,0.089Z"/></clipPath><g clip-path="url(#_clip11)"><path d="M203.469,495.678c0,0 44.9,-12.648 58.444,28.563c13.543,41.21 -7.378,23.021 -7.378,23.021c0,0 -43.5,-25.416 -48.02,-34.775c-4.52,-9.361 -3.046,-16.809 -3.046,-16.809" style="fill:#fff;"/><path d="M201.033,468.357c0,0 4.848,21.013 5.39,26.051c0.542,5.039 17.863,30.049 26.334,35.832c8.472,5.782 18.855,10.693 25.902,10.924c7.047,0.234 -8.115,21.162 -8.115,21.162c0,0 -59.099,-25.298 -65.789,-61.87c-6.689,-36.575 4.823,-37.264 16.278,-32.099" style="fill:#ebeced;"/></g></g><path d="M265.184,477.659c-3.958,-7.829 -8.735,-14.677 -15.004,-18.957c-6.352,-4.338 -13.515,-5.512 -21,-4.897l-0.014,0l-0.015,0.003c-2.314,0.034 -2.153,-6.005 0.449,-6.383l0.014,-0.002l0.013,-0.002c8.234,-0.678 16.043,0.676 23.027,5.447c6.844,4.675 12.061,12.03 16.387,20.584l0.018,0.037l0.014,0.037c1.115,2.947 -2.305,6.581 -3.853,4.197l-0.019,-0.032l-0.017,-0.032Z"/><path d="M259.279,487.459c-3.492,-7.527 -7.775,-14.055 -13.522,-17.998c-5.824,-3.997 -12.49,-4.849 -19.504,-3.928l-0.014,0.002l-0.013,0c-2.165,0.132 -1.854,-5.812 0.59,-6.29l0.012,-0.002l0.013,-0.002c7.716,-1.015 14.981,-0.012 21.384,4.381c6.275,4.306 10.957,11.315 14.773,19.541l0.016,0.033l0.012,0.038c0.963,2.849 -2.331,6.564 -3.715,4.285l-0.017,-0.029l-0.015,-0.031Z"/><path d="M262.298,482.591c-3.745,-7.691 -8.296,-14.392 -14.325,-18.519c-6.111,-4.18 -13.046,-5.209 -20.315,-4.451l-0.014,0l-0.014,0c-2.247,0.081 -2.017,-5.914 0.514,-6.34l0.012,-0.001l0.014,-0.001c7.996,-0.833 15.556,0.362 22.274,4.958c6.583,4.505 11.554,11.702 15.647,20.107l0.016,0.034l0.015,0.037c1.045,2.904 -2.318,6.574 -3.791,4.237l-0.017,-0.029l-0.016,-0.032Z"/><path d="M256.449,492.426c-3.296,-7.4 -7.373,-13.792 -12.9,-17.595c-5.601,-3.852 -12.058,-4.568 -18.875,-3.52l-0.013,0.003l-0.013,0.001c-2.102,0.17 -1.727,-5.731 0.649,-6.252l0.012,-0.003l0.012,-0.003c7.5,-1.154 14.536,-0.299 20.694,3.936c6.035,4.151 10.492,11.015 14.094,19.1l0.015,0.034l0.012,0.035c0.9,2.81 -2.342,6.558 -3.657,4.324l-0.016,-0.029l-0.014,-0.031Z"/><path d="M229.57,448.258c9.04,-0.745 16.432,1.055 22.758,5.375c6.319,4.314 11.524,11.11 16.207,20.371c0.806,2.13 -1.737,4.813 -2.845,3.103c-4.431,-8.761 -9.311,-15.159 -15.184,-19.17c-5.865,-4.005 -12.772,-5.668 -21.269,-4.968c-1.566,0.022 -1.513,-4.443 0.333,-4.711" style="fill:#ffcb05;fill-rule:nonzero;"/><path d="M226.765,460.065c8.473,-1.113 15.336,0.344 21.135,4.322c5.793,3.976 10.479,10.435 14.61,19.338c0.697,2.059 -1.753,4.803 -2.743,3.17c-3.909,-8.422 -8.301,-14.504 -13.685,-18.199c-5.377,-3.691 -11.791,-5.033 -19.753,-3.987c-1.466,0.088 -1.297,-4.304 0.436,-4.644" style="fill:#ffcb05;fill-rule:nonzero;"/><path d="M228.104,454.109c8.78,-0.913 15.929,0.729 22.014,4.893c6.078,4.158 11.045,10.801 15.475,19.896c0.756,2.099 -1.743,4.809 -2.798,3.136c-4.191,-8.605 -8.848,-14.86 -14.497,-18.727c-5.642,-3.86 -12.322,-5.375 -20.574,-4.518c-1.52,0.054 -1.414,-4.38 0.38,-4.68" style="fill:#ffcb05;fill-rule:nonzero;"/><path d="M225.238,465.877c8.234,-1.268 14.875,0.046 20.453,3.882c5.571,3.829 10.039,10.148 13.938,18.902c0.651,2.03 -1.759,4.799 -2.701,3.199c-3.688,-8.283 -7.876,-14.232 -13.055,-17.792c-5.171,-3.558 -11.377,-4.767 -19.115,-3.575c-1.423,0.116 -1.205,-4.245 0.48,-4.616" style="fill:#ffcb05;fill-rule:nonzero;"/><path d="M379.42,127.005c2.788,3.957 6.062,5.677 9.695,7.067l-0.185,-1.534c-3.009,-0.456 -6.32,-2.742 -9.51,-5.533" style="fill:#fff;"/><path d="M362.17,155.065c-7.95,-1.619 -16.076,-1.716 -24.152,-0.73l-7.165,0.875l4.482,-5.658c0.497,-0.627 1.019,-1.218 1.564,-1.775c-2.762,0.343 -5.503,0.88 -8.225,1.641l-4.534,1.268l0.818,-4.638c0.209,-1.183 0.473,-2.351 0.786,-3.505c-1.221,1.603 -2.349,3.23 -3.363,4.808l-5.586,8.696l0.129,-10.335c0.19,-15.439 4.124,-30.792 11.986,-44.089c-5.259,-1.447 -10.884,-4.135 -14.155,-7.8c-4.732,-5.305 -7.211,-17.562 -7.96,-24.574l-0.454,-4.244l36.582,9.351l7.623,-4.721c-3.703,-1.422 -7.164,-3.477 -10.202,-6.047l-9.426,-7.976l12.021,2.828c2.55,0.6 6.38,1.246 10.201,1.575c-4.801,-3.248 -8.999,-7.262 -12.643,-12.081l-7.05,-9.32l10.64,4.832c5.462,2.481 11.139,4.563 16.96,6.046c-5.878,-4.346 -11.105,-9.598 -15.887,-15.237l-13.74,-16.198l17.649,11.818c24.034,16.092 51.128,24.305 79.091,30.45l34.444,-20.641l0.907,3.988c3.711,16.346 2.027,34.949 -13.684,42.323c14.422,10.121 24.894,22.767 27.299,41.386l0.694,5.37l-4.898,-2.309c-4.797,-2.261 -9.668,-3.709 -14.694,-4.533c4.215,4.773 6.307,10.924 7.933,17.948l1.208,5.217l-5.063,-1.746c-4.751,-1.64 -10.011,-4.066 -15.353,-5.664c0.864,0.856 1.771,1.823 2.762,2.923l7.829,8.679l-11.019,-3.899c-7.333,-2.595 -17.052,-0.82 -25.101,0.472l1.787,18.467l-0.033,0.3c-0.667,6.241 -3.049,11.74 -7.341,16.363l-1.644,1.771l-2.694,-1.635c0.424,1.656 1.05,3.267 1.82,4.834l2.265,4.608l-5.124,-0.342c-6.326,-0.424 -12.641,-1.786 -18.618,-4.002c0.506,0.696 1.024,1.368 1.537,2.01l5.797,7.243l-8.923,-2.539c-6.193,-1.764 -11.716,-4.337 -16.551,-8.068l0.752,3.6l-5.393,-2.557c-5.587,-2.649 -10.271,-7.597 -10.712,-14.001l-0.03,-0.427l3.851,-20.399Z"/><path d="M357.907,68.564l-14.496,8.976l-33.669,-8.606c0,0 1.8,16.834 7.224,22.915c5.427,6.08 16.704,7.768 16.704,7.768c-9.897,14.856 -13.604,31.549 -13.784,46.132c4.126,-6.423 9.494,-12.699 15.205,-16.294c-3.825,5.827 -6.23,11.529 -7.213,17.108c6.838,-1.912 13.602,-2.45 20.32,-2.138c-4.758,1.5 -8.124,3.919 -10.539,6.968c9.953,-1.215 19.542,-0.794 28.689,1.601l-5.042,22.694c0.346,5.044 4.107,9.194 9.025,11.526l-1.527,-7.31c6.229,7.736 13.914,11.786 22.261,14.161c-2.645,-3.304 -4.792,-6.642 -5.812,-10.057c7.622,4.055 16.409,6.637 25.405,7.239c-1.86,-3.786 -2.895,-7.689 -2.718,-11.767l5.724,3.472c3.952,-4.257 5.983,-9.202 6.567,-14.661l-2.028,-20.954c9.774,-1.426 20.52,-3.875 29.311,-0.765c-4.794,-5.315 -6.962,-7.409 -15.787,-8.855c10.813,-2.667 21.71,3.414 31.546,6.809c-2.143,-9.265 -5.086,-17.916 -15.424,-22.458c8.7,0.117 17.456,1.506 26.337,5.693c-2.624,-20.314 -15.426,-32.821 -30.961,-42.59c19.307,-4.731 21.194,-24.114 17.395,-40.842l-31.945,19.143c-28.699,-6.245 -56.464,-14.533 -81.254,-31.134c8.409,9.914 17.797,18.108 29.342,22.515c-10.736,-0.464 -22.025,-3.312 -33.901,-8.708c6.074,8.033 13.311,13.121 21.265,16.388c-5.158,1.403 -15.453,0.301 -21.868,-1.207c4.917,4.159 10.504,6.421 15.648,7.238" style="fill:#ed8c0e;"/><clipPath id="_clip12"><path d="M376.763,54.852c-10.736,-0.462 -22.025,-3.311 -33.901,-8.706c6.074,8.032 13.31,13.12 21.265,16.387c-5.158,1.403 -15.453,0.301 -21.868,-1.208c4.917,4.16 10.504,6.422 15.648,7.239l-14.496,8.976l-33.669,-8.606c0,0 1.8,16.834 7.224,22.915c5.427,6.08 16.704,7.768 16.704,7.768c-9.898,14.856 -13.604,31.549 -13.784,46.132c4.125,-6.423 9.494,-12.699 15.205,-16.293c-3.825,5.826 -6.23,11.529 -7.213,17.106c6.838,-1.911 13.602,-2.45 20.32,-2.136c-4.758,1.499 -8.124,3.918 -10.539,6.967c9.953,-1.215 19.542,-0.794 28.689,1.601l-5.043,22.693c0.347,5.045 4.108,9.196 9.026,11.527l-1.527,-7.309c6.229,7.735 13.914,11.785 22.261,14.16c-2.645,-3.304 -4.792,-6.642 -5.812,-10.057c7.622,4.055 16.409,6.636 25.405,7.239c-1.86,-3.786 -2.894,-7.689 -2.717,-11.768l5.723,3.473c3.952,-4.257 5.983,-9.202 6.567,-14.661l-2.028,-20.954c9.774,-1.427 20.52,-3.875 29.312,-0.765c-4.795,-5.315 -6.963,-7.408 -15.788,-8.855c10.813,-2.667 21.71,3.414 31.546,6.808c-2.143,-9.264 -5.086,-17.915 -15.424,-22.458c8.7,0.119 17.456,1.507 26.337,5.694c-2.624,-20.313 -15.426,-32.822 -30.961,-42.591c19.307,-4.729 21.195,-24.113 17.394,-40.84l-31.944,19.142c-28.699,-6.245 -56.464,-14.534 -81.254,-31.134c8.409,9.914 17.797,18.108 29.342,22.514Z"/></clipPath><g clip-path="url(#_clip12)"><path d="M439.9,81.031c0,0 13.34,-9.402 15.429,-17.252c2.09,-7.851 6.32,-20.37 6.32,-20.37c0,0 5.831,16.833 0.976,24.361c-4.855,7.53 -8.221,16.528 -13.843,17.54c-5.621,1.012 -8.882,-4.279 -8.882,-4.279" style="fill:#f6adcd;"/></g><clipPath id="_clip13"><path d="M455.33,63.779c-2.09,7.85 -15.43,17.252 -15.43,17.252c0,0 1.613,2.619 4.528,3.819c17.698,-5.09 19.807,-23.151 16.476,-39.209c-1.308,3.956 -4.027,12.326 -5.574,18.138Z"/></clipPath><g clip-path="url(#_clip13)"><path d="M461.279,47.583c0,0 -1.638,16.665 -3.293,21.422c-1.656,4.758 -9.398,16.166 -9.398,16.166l-9.641,-3.921c0,0 14.712,-22.587 13.761,-24.712c-0.951,-2.123 8.571,-8.955 8.571,-8.955" style="fill:#cb8da6;"/></g><g><clipPath id="_clip14"><path d="M376.763,54.852c-10.736,-0.462 -22.025,-3.311 -33.901,-8.706c6.074,8.032 13.31,13.12 21.265,16.387c-5.158,1.403 -15.453,0.301 -21.868,-1.208c4.917,4.16 10.504,6.422 15.648,7.239l-14.496,8.976l-33.669,-8.606c0,0 1.8,16.834 7.224,22.915c5.427,6.08 16.704,7.768 16.704,7.768c-9.898,14.856 -13.604,31.549 -13.784,46.132c4.125,-6.423 9.494,-12.699 15.205,-16.293c-3.825,5.826 -6.23,11.529 -7.213,17.106c6.838,-1.911 13.602,-2.45 20.32,-2.136c-4.758,1.499 -8.124,3.918 -10.539,6.967c9.953,-1.215 19.542,-0.794 28.689,1.601l-5.043,22.693c0.347,5.045 4.108,9.196 9.026,11.527l-1.527,-7.309c6.229,7.735 13.914,11.785 22.261,14.16c-2.645,-3.304 -4.792,-6.642 -5.812,-10.057c7.622,4.055 16.409,6.636 25.405,7.239c-1.86,-3.786 -2.894,-7.689 -2.717,-11.768l5.723,3.473c3.952,-4.257 5.983,-9.202 6.567,-14.661l-2.028,-20.954c9.774,-1.427 20.52,-3.875 29.312,-0.765c-4.795,-5.315 -6.963,-7.408 -15.788,-8.855c10.813,-2.667 21.71,3.414 31.546,6.808c-2.143,-9.264 -5.086,-17.915 -15.424,-22.458c8.7,0.119 17.456,1.507 26.337,5.694c-2.624,-20.313 -15.426,-32.822 -30.961,-42.591c19.307,-4.729 21.195,-24.113 17.394,-40.84l-31.944,19.142c-28.699,-6.245 -56.464,-14.534 -81.254,-31.134c8.409,9.914 17.797,18.108 29.342,22.514Z"/></clipPath><g clip-path="url(#_clip14)"><path d="M428.761,74.57c0,0 17.171,16.069 17.97,18.308c0.801,2.24 1.042,11.438 1.042,11.438c0,0 -14.904,4.473 -17.573,6.403c-2.67,1.931 15.157,-0.238 18.852,0.25c3.693,0.488 5.078,0.354 5.078,0.354c0,0 18.98,12.596 21.64,17.457c2.66,4.86 -3.845,-24.491 -8.549,-31.592c-4.702,-7.101 -23.962,-13.922 -23.617,-14.493c0.346,-0.57 -14.843,-8.125 -14.843,-8.125" style="fill:#9d5d0a;"/><path d="M376.265,124.627l-1.062,-0.191c-9.341,-0.082 -25.829,1.559 -36.51,9.213c7.113,-0.197 18.552,5.55 24.119,7.703c-6.584,2.007 -12.307,5.073 -16.999,9.416l20.535,2.226l-11.1,31.471l39.353,16.708c0,0 38.407,-4.542 38.49,-6.051c0.084,-1.509 3.213,-25.283 1.634,-29.598c-1.579,-4.315 -1.679,-20.256 -1.679,-20.256c-5.093,-3.538 -10.766,-5.939 -16.764,-7.702c5.353,-2.334 28.115,-8.252 33.358,-8.562c-7.375,-5.926 -36.643,-10.057 -44.837,-9.334l-13.874,8.193l-14.664,-3.236Z" style="fill:#fff0c3;"/><path d="M332.139,102.751c-2.568,7.713 -3.684,15.172 -3.6,22.422c4.618,-4.547 9.726,-8.422 16.035,-10.643c-1.332,5.229 -1.764,10.508 -0.875,15.86c8.233,-2.877 17.431,-3.992 25.519,-4.24l12.22,14.49l22.492,1.242l16.647,-14.904c6.593,-1.947 13.106,-2.406 19.588,-2.326c-3.997,-5.55 -9.775,-9.27 -16.768,-11.738c9.788,-3.163 21.467,-3.469 32.195,-1.71c1.35,-5.985 0.304,-12.507 -3.136,-19.57c8.215,1.495 27.567,15.838 26.752,36.082c-0.815,20.245 -48.97,64.221 -52.122,66.469c-3.151,2.249 -48.031,8.855 -48.031,8.855c0,0 -51.298,-25.24 -52.087,-27.403c-0.789,-2.164 -30.486,-29.241 -30.486,-29.241l9.435,-22.796l26.222,-20.849Z" style="fill:#fef1b4;"/></g></g><clipPath id="_clip15"><path d="M455.592,111.203c-10.728,-1.758 -22.408,-1.452 -32.195,1.71c6.994,2.469 12.771,6.189 16.768,11.739c-6.483,-0.08 -12.995,0.379 -19.588,2.326l-16.647,14.904l-22.492,-1.242l-12.22,-14.49c-8.088,0.248 -17.285,1.363 -25.519,4.241c-0.889,-5.353 -0.457,-10.632 0.875,-15.862c-6.309,2.222 -11.416,6.097 -16.035,10.645c-0.084,-7.251 1.032,-14.71 3.6,-22.422l-0.853,0.678c-8.116,13.856 -11.234,28.972 -11.4,42.319c4.125,-6.423 9.494,-12.699 15.205,-16.293c-3.825,5.826 -6.23,11.529 -7.213,17.106c6.838,-1.911 13.602,-2.45 20.32,-2.136c-4.758,1.499 -8.124,3.918 -10.539,6.967c9.953,-1.215 19.542,-0.794 28.689,1.601l-5.043,22.693c0.347,5.045 4.108,9.196 9.026,11.527l-1.527,-7.309c6.229,7.735 13.914,11.785 22.261,14.16c-2.645,-3.304 -4.792,-6.642 -5.812,-10.057c7.622,4.055 16.409,6.636 25.405,7.239c-1.86,-3.786 -2.894,-7.689 -2.717,-11.768l5.723,3.473c3.952,-4.257 5.983,-9.202 6.567,-14.661l-2.028,-20.954c9.774,-1.427 20.52,-3.875 29.312,-0.765c-4.795,-5.315 -6.963,-7.408 -15.788,-8.855c10.813,-2.667 21.71,3.414 31.546,6.808c-2.143,-9.264 -5.086,-17.915 -15.424,-22.458c8.7,0.119 17.456,1.507 26.337,5.694c-2.08,-16.108 -10.561,-27.308 -21.73,-36.126c3.44,7.061 4.486,13.584 3.136,19.568Z"/></clipPath><g clip-path="url(#_clip15)"><path d="M428.761,74.57c0,0 17.171,16.069 17.97,18.308c0.801,2.24 1.042,11.438 1.042,11.438c0,0 -14.904,4.473 -17.573,6.403c-2.67,1.931 15.157,-0.238 18.852,0.25c3.693,0.488 5.078,0.354 5.078,0.354c0,0 18.98,12.596 21.64,17.457c2.66,4.86 -3.845,-24.491 -8.549,-31.592c-4.702,-7.101 -23.962,-13.922 -23.617,-14.493c0.346,-0.57 -14.843,-8.125 -14.843,-8.125" style="fill:#cfc492;"/></g><g><clipPath id="_clip16"><path d="M376.763,54.852c-10.736,-0.462 -22.025,-3.311 -33.901,-8.706c6.074,8.032 13.31,13.12 21.265,16.387c-5.158,1.403 -15.453,0.301 -21.868,-1.208c4.917,4.16 10.504,6.422 15.648,7.239l-14.496,8.976l-33.669,-8.606c0,0 1.8,16.834 7.224,22.915c5.427,6.08 16.704,7.768 16.704,7.768c-9.898,14.856 -13.604,31.549 -13.784,46.132c4.125,-6.423 9.494,-12.699 15.205,-16.293c-3.825,5.826 -6.23,11.529 -7.213,17.106c6.838,-1.911 13.602,-2.45 20.32,-2.136c-4.758,1.499 -8.124,3.918 -10.539,6.967c9.953,-1.215 19.542,-0.794 28.689,1.601l-5.043,22.693c0.347,5.045 4.108,9.196 9.026,11.527l-1.527,-7.309c6.229,7.735 13.914,11.785 22.261,14.16c-2.645,-3.304 -4.792,-6.642 -5.812,-10.057c7.622,4.055 16.409,6.636 25.405,7.239c-1.86,-3.786 -2.894,-7.689 -2.717,-11.768l5.723,3.473c3.952,-4.257 5.983,-9.202 6.567,-14.661l-2.028,-20.954c9.774,-1.427 20.52,-3.875 29.312,-0.765c-4.795,-5.315 -6.963,-7.408 -15.788,-8.855c10.813,-2.667 21.71,3.414 31.546,6.808c-2.143,-9.264 -5.086,-17.915 -15.424,-22.458c8.7,0.119 17.456,1.507 26.337,5.694c-2.624,-20.313 -15.426,-32.822 -30.961,-42.591c19.307,-4.729 21.195,-24.113 17.394,-40.84l-31.944,19.142c-28.699,-6.245 -56.464,-14.534 -81.254,-31.134c8.409,9.914 17.797,18.108 29.342,22.514Z"/></clipPath><g clip-path="url(#_clip16)"><path d="M308.243,67.221c0,0 8.768,14.176 13.03,16.617c4.261,2.441 15.735,8.448 15.735,8.448l-5.973,8.293c0,0 -14.828,-3.252 -17.923,-11.714c-3.096,-8.463 -4.869,-21.644 -4.869,-21.644" style="fill:#f6adcd;"/><path d="M342.655,97.967c0,0 1.806,8.462 6.812,11.996c5.005,3.537 12.782,3.517 14.066,3.476c1.282,-0.041 5.939,-3.52 5.939,-3.52c0,0 0.823,-4.042 0.325,-3.853c-0.498,0.189 -2.12,-6.05 -2.12,-6.05c0,0 -24.899,-4.256 -25.022,-2.049" style="fill:#fef1b4;"/><path d="M403.118,129.87c0,0 4.368,-5.062 5.199,-8.511c0.833,-3.45 2.925,-9.004 2.925,-9.004c0,0 10.395,0.462 15.822,-3.697c5.427,-4.158 5.79,-10.323 6.09,-15.624c0.3,-5.3 -6.074,-12.809 -6.074,-12.809l-22.231,14.286c0,0 1.185,25.059 1.028,25.908c-0.155,0.849 -2.759,9.451 -2.759,9.451" style="fill:#9d5d0a;"/><path d="M406.63,105.808c0,0 6.968,4.045 9.432,3.345c2.464,-0.701 9.124,-1.612 10.422,-3.898c1.3,-2.286 4.246,-14.448 4.355,-16.419c0.109,-1.971 -4.308,-9.803 -4.308,-9.803l-20.965,16.171l1.064,10.604Z" style="fill:#fef1b4;"/><path d="M363.827,164.341l1.236,11.551l3.137,-8.574c3.255,5.664 7.32,10.44 12.199,14.329l-1.8,-9.681c7.962,5.918 15.073,8.564 22.837,10.844c-2.151,-3.855 -2.889,-8.358 -2.213,-13.505c4.403,2.874 9.573,5.792 15.262,6.958c0,0 4.621,-3.302 7.372,-9.091c2.752,-5.788 4.468,20.628 4.182,24.275c-0.285,3.647 -18.271,15.903 -18.271,15.903c0,0 -35.018,-5.498 -36.751,-6.792c-1.734,-1.295 -14.432,-7.148 -15.633,-10.095c-1.201,-2.948 -4.565,-7.857 -4.133,-9.14c0.431,-1.282 4.451,-8.33 4.451,-8.33l8.125,-8.652Z" style="fill:#cfc492;"/><path d="M386.062,105.267l4.655,20.647l14.405,-7.97l0.164,-23.757l22.486,-14.865l-28.555,10.945c0,0 -6.641,2.863 -7.414,3.888c-0.772,1.026 -5.741,11.112 -5.741,11.112" style="fill:#9d5d0a;"/></g></g><path d="M367.98,98.956l9.359,24.823l13.379,2.135l13.237,-7.411l0.575,-24.456l24.608,-16.795l0.027,2.118l-22.111,16.667l-0.511,23.274l-0.017,0.745l-0.648,0.364l-14.277,7.993l-0.842,0.147l-14.577,-2.325l-0.75,-0.119l-0.267,-0.709l-8.819,-24.001l-27.581,-4.004l-0.412,-2.203l29.627,3.757Z" style="fill-rule:nonzero;"/><path d="M373.3,120.335l3.424,1.719l13.305,2.396l0,5.31l-5.333,-0.961c0.671,0.726 1.392,1.368 2.165,1.919l0.011,0c0.961,0.687 2.012,1.242 3.157,1.659l0,5.467c-1.434,-0.351 -5.717,-1.449 -5.33,-1.967c-7.23,-1.739 -9.543,-8.301 -11.399,-15.542m16.729,4.115l0.491,0.088l9.485,-5.21l0,5.956l-0.169,0.093l0.169,0.044l0,7.689c-1.154,0.809 -2.447,1.362 -3.871,1.595c-1.428,1.488 -1.791,1.613 -3.63,2.854l-0.954,0.645l-1.091,-0.257c-0.06,-0.014 -0.213,-0.05 -0.43,-0.103l0,-5.467c0.176,0.065 0.353,0.126 0.534,0.183c1.36,-1.005 2.561,-2.091 3.601,-3.253c0.424,-0.474 0.823,-0.963 1.198,-1.472l-3.146,1.727l-1.712,0.283l-0.475,-0.085l0,-5.31Zm9.976,-5.122l3.544,-1.947l3.104,-3.105c0.54,7.71 -1.86,15.478 -6.648,18.834l0,-7.689l0.059,0.015l0.11,-0.245l-0.169,0.093l0,-5.956Z" style="fill-rule:nonzero;"/><path d="M376.265,124.627c1.675,4.641 3.709,7.552 7.291,9.942c-1.409,-1.873 -2.303,-3.948 -2.575,-6.263c2.501,3.644 5.802,6.093 10.068,7.096c3.885,-2.626 6.738,-5.815 8.563,-9.568c-0.168,2.447 -0.555,4.903 -1.735,7.398c4.067,-3.968 5.78,-9.421 6.926,-13.562l-13.84,7.603l-14.698,-2.646Z" style="fill:#f6adcd;"/><clipPath id="_clip17"><path d="M390.963,127.273l-14.698,-2.647c1.675,4.643 3.709,7.554 7.291,9.943c-1.409,-1.873 -2.303,-3.947 -2.575,-6.264c2.501,3.645 5.802,6.094 10.068,7.097c3.885,-2.626 6.738,-5.815 8.563,-9.568c-0.168,2.447 -0.554,4.903 -1.735,7.398c4.067,-3.968 5.781,-9.421 6.926,-13.562l-13.84,7.603Z"/></clipPath><g clip-path="url(#_clip17)"><path d="M390.616,126.462l1.076,10.325c0,0 -7.551,-0.129 -10.543,-1.266c-2.992,-1.137 -7.511,-9.763 -7.511,-9.763l0.101,-3.766l2.005,-2.441l14.872,6.911Z" style="fill:#f9cbdf;"/></g><path d="M346.521,98.026c3.366,21.675 24.134,11.806 23.927,11.258l-3.192,-8.422l-20.735,-2.836Z"/><g><clipPath id="_clip18"><path d="M370.448,109.285l-3.193,-8.422l-20.734,-2.837c3.366,21.675 24.134,11.806 23.927,11.259Z"/></clipPath><g clip-path="url(#_clip18)"><path d="M361.204,93.873c4.465,0.246 7.886,4.067 7.639,8.532c-0.246,4.466 -4.066,7.886 -8.531,7.64c-4.466,-0.246 -7.887,-4.067 -7.64,-8.532c0.246,-4.465 4.067,-7.887 8.532,-7.64" style="fill:#ffcb05;"/><path d="M360.971,98.093c2.136,0.118 3.771,1.944 3.653,4.08c-0.118,2.135 -1.945,3.77 -4.079,3.653c-2.136,-0.118 -3.771,-1.945 -3.653,-4.08c0.117,-2.135 1.944,-3.771 4.079,-3.653"/><path d="M358.251,103.157c0.724,0.04 1.277,0.659 1.237,1.381c-0.041,0.723 -0.66,1.276 -1.381,1.236c-0.723,-0.039 -1.277,-0.658 -1.236,-1.381c0.038,-0.722 0.657,-1.276 1.38,-1.236" style="fill:#fff;"/></g></g><path d="M405.543,105.566c20.115,4.807 21.318,-14.283 19.656,-24.384l-19.43,14.034l-0.226,10.35Z"/><g><clipPath id="_clip19"><path d="M405.769,95.216l-0.226,10.351c20.116,4.806 21.318,-14.284 19.656,-24.386l-19.43,14.035Z"/></clipPath><g clip-path="url(#_clip19)"><path d="M412.366,86.039c4.465,0.246 7.886,4.067 7.639,8.532c-0.246,4.466 -4.067,7.887 -8.532,7.64c-4.465,-0.246 -7.886,-4.067 -7.639,-8.532c0.245,-4.465 4.066,-7.886 8.532,-7.64" style="fill:#ffcb05;"/><path d="M412.133,90.259c2.134,0.118 3.77,1.945 3.652,4.079c-0.118,2.136 -1.945,3.771 -4.079,3.654c-2.135,-0.118 -3.771,-1.945 -3.653,-4.08c0.117,-2.135 1.944,-3.77 4.08,-3.653"/><path d="M409.412,95.323c0.723,0.04 1.277,0.659 1.237,1.382c-0.04,0.722 -0.658,1.276 -1.381,1.236c-0.723,-0.04 -1.277,-0.658 -1.236,-1.381c0.039,-0.723 0.657,-1.277 1.38,-1.237" style="fill:#fff;"/></g></g><path d="M391.701,135.408l-0.067,10.87l-1.305,-0.012l0.069,-10.87l1.303,0.012Z" style="fill-rule:nonzero;"/><path d="M416.762,153.567c-15.941,-5.969 -32.48,-7.539 -49.225,-5.589l-1.617,6.964l-3.425,-0.414l2.048,-8.491c9.418,-0.602 18.32,-1.388 27.777,-0.248c6.582,0.794 18.675,2.082 24.442,7.778" style="fill-rule:nonzero;"/><path d="M369.627,109.162l1.04,0.783c-2.798,3.717 -6.438,5.289 -10.429,5.413c-4.704,0.146 -9.883,-1.741 -14.714,-4.48c7.715,2.691 18.174,6.16 24.103,-1.716" style="fill-rule:nonzero;"/><path d="M405.838,104.644l-0.948,0.893c3.189,3.387 6.979,4.551 10.959,4.237c4.692,-0.369 9.632,-2.813 14.135,-6.064c-7.374,3.519 -17.39,8.114 -24.146,0.934" style="fill-rule:nonzero;"/><path d="M402.342,147.93c3.06,-2.873 5.406,-6.412 7.312,-10.364c2.028,4.172 2.818,8.442 1.804,12.851l-9.116,-2.487Z" style="fill:#fff;"/><path d="M401.777,147.332c1.485,-1.394 2.802,-2.955 3.977,-4.648c0.623,-0.895 1.204,-1.827 1.753,-2.788l0,3.137c-0.132,0.198 -0.265,0.394 -0.401,0.589c-0.959,1.383 -2.012,2.685 -3.171,3.889l3.572,0.974l0,1.708l-5.382,-1.468l-1.42,-0.387l1.072,-1.006Zm5.73,-7.436c0.496,-0.872 0.964,-1.768 1.407,-2.685l0.737,-1.529l0.743,1.527c1.047,2.153 1.777,4.342 2.115,6.572c0.339,2.242 0.279,4.515 -0.251,6.82l-0.192,0.837l-0.824,-0.225l-3.735,-1.02l0,-1.708l3.32,0.906c0.321,-1.814 0.326,-3.603 0.058,-5.366c-0.23,-1.522 -0.665,-3.037 -1.277,-4.545c-0.651,1.234 -1.349,2.422 -2.101,3.553l0,-3.137Z" style="fill-rule:nonzero;"/><path d="M310.681,67.766c3.116,7.113 6.838,11.739 11.233,15.211c4.421,3.493 9.572,5.859 15.481,8.411l-0.775,1.797c-6.039,-2.609 -11.312,-5.031 -15.919,-8.671c-4.635,-3.662 -8.551,-8.521 -11.811,-15.966l1.791,-0.782Z" style="fill-rule:nonzero;"/><path d="M328.518,102.804c2.903,-4.27 8.331,-15.351 16.968,-20.825c-2.388,2.317 -15.082,23.225 -14.809,22.295l-2.159,-1.47Z" style="fill-rule:nonzero;"/><path d="M448.119,88.434c-7.149,-4.673 -14.023,-9.593 -20.905,-14.51c8.184,3.387 16.216,7.192 23.564,12.872l-2.659,1.638Z" style="fill-rule:nonzero;"/><path d="M461.595,44.386c-0.426,6.961 -2.793,15.817 -7.248,23.407c-3.6,6.135 -8.574,11.464 -15,14.35l-0.8,-1.786c6.016,-2.701 10.7,-7.739 14.114,-13.555c4.293,-7.316 6.575,-15.839 6.984,-22.531l1.95,0.115Z" style="fill-rule:nonzero;"/><path d="M368.412,87.128c5.227,0.027 12.913,3.094 15.318,3.753l15.066,-15.8l0.319,-0.228c4.744,-2.373 3.911,-9.485 10.898,-8.429c-3.3,0.9 -5.358,8.298 -9.509,10.638c-5.087,6.409 -11.039,12.009 -15.261,19.226c-5.978,-3.11 -9.577,-5.414 -16.85,-6.553c-4.822,-0.024 -10.202,-2.131 -13.479,-3.415c-1.005,-0.394 -1.802,-0.707 -2.236,-0.824c-1.68,-0.459 -5.467,0.98 -5.477,0.984c5.9,-7.434 13.323,0.61 21.211,0.648" style="fill-rule:nonzero;"/><path d="M346.908,75.375c0,0 5.135,-0.929 7.319,0.712c2.185,1.642 5.063,4.387 9.489,3.87c4.425,-0.515 15.61,5.578 15.61,5.578c0,0 -7.474,-7.41 -12.276,-8.284c-4.804,-0.873 -5.794,0.594 -8.121,-1.209c-2.326,-1.802 -7.403,-5.311 -7.403,-5.311l-4.618,4.644Z"/><path d="M396.073,54.056c0,0 -3.081,11.849 -7.128,13.755c-4.046,1.906 -6.446,15.162 -6.446,15.162c0,0 3.022,-8.049 6.607,-9.828c3.585,-1.78 11.903,-17.904 11.903,-17.904l-4.936,-1.185Z"/><path d="M328.72,106.897c0,0 -1.871,11.86 -1.989,12.614c-0.117,0.754 0.887,8.644 0.887,8.644c0,0 3.069,-3.161 4.513,-4.04c1.443,-0.879 3.312,-1.765 5.402,-3.932c2.091,-2.167 4.224,-2.354 4.224,-2.354c-0.386,6.065 -1.222,11.465 0.073,15.143c0,0 22.919,-8.776 27.508,-8.143c-7.972,-1.126 -11.086,-0.445 -17.161,0.574c-6.075,1.02 -8.06,3.207 -8.06,3.207c0,0 -0.484,-10.448 -0.107,-11.796c0.378,-1.349 0.847,-2.996 0.847,-2.996c0,0 -6.543,1.843 -7.593,3.003c-1.049,1.159 -5.108,4.663 -6.569,5.038c-1.461,0.376 -1.928,0.579 -1.928,0.579c0,0 -0.494,-4.744 0.911,-6.873c1.406,-2.128 2.725,-13.649 2.725,-13.649l-0.152,-2.21l-3.531,7.191Z"/><path d="M449.806,88.527c0,0 3.824,10.391 2.9,13.382c-0.924,2.992 -1.67,5.537 -1.418,6.464c0.251,0.927 -10.782,0.317 -12.931,0.807c-2.15,0.49 -8.666,0.435 -10.362,0.95c-1.696,0.515 -7.161,3.407 -7.161,3.407c0,0 5.239,1.202 8.161,3.19c2.922,1.987 6.811,5.7 6.811,5.7l-23.2,-2.649l28.55,7.357l1.782,0.459c0,0 -1.994,-4.884 -4.026,-6.517c-2.031,-1.632 -4.021,-4.025 -6.247,-4.908c-2.225,-0.883 -3.93,-2.955 -3.93,-2.955c0,0 8.296,-1.977 12.645,-1.128c4.349,0.849 10.814,1.035 10.814,1.035l4.73,0.261c0,0 0.742,-13.48 -1.088,-16.015c-1.83,-2.536 -0.89,-5.831 -0.89,-5.831l-5.14,-3.009Z"/><path d="M293.5,110.821c0.128,-0.012 44.483,-4.315 73.57,18.905c0.643,0.436 -0.137,1.721 -1.022,1.285c-18.15,-16.9 -55.004,-19.568 -72.548,-20.19" style="fill-rule:nonzero;"/><path d="M495.081,134.61c-0.115,-0.057 -40.003,-19.931 -75.468,-8.642c-0.754,0.178 -0.486,1.656 0.496,1.565c22.992,-9.295 58.366,1.387 74.972,7.077" style="fill-rule:nonzero;"/><path d="M272.635,130.611c0.145,-0.045 50.848,-15.792 90.395,4.26c0.856,0.353 0.258,2.04 -0.881,1.746c-25.262,-15.324 -68.899,-9.523 -89.514,-6.006" style="fill-rule:nonzero;"/><path d="M507.494,160.551c-0.119,-0.093 -41.844,-32.925 -85.944,-28.333c-0.926,0.023 -0.971,1.813 0.198,1.945c29.069,-5.282 67.75,15.734 85.746,26.388" style="fill-rule:nonzero;"/><path d="M300.089,145.964c0.099,-0.049 34.521,-17.101 65.07,-7.299c0.651,0.154 0.416,1.429 -0.431,1.349c-20.291,-6.981 -50.313,1.078 -64.639,5.95" style="fill-rule:nonzero;"/><path d="M477.282,164.709c-0.075,-0.081 -26.129,-28.311 -58.162,-30.076c-0.665,-0.09 -0.9,1.185 -0.081,1.412c21.446,0.735 46.604,18.992 58.243,28.664" style="fill-rule:nonzero;"/><path d="M366.22,94.491c0,0 5.533,-0.535 7.535,0.711c2.002,1.246 4.462,3.161 7.642,4.333c3.179,1.172 4.347,1.68 4.347,1.68l4.927,-7.756c0,0 5.328,-3.106 7.35,-5.653c2.024,-2.547 2.485,-4.508 2.485,-4.508c0,0 -0.001,5.259 -1.289,6.969c-1.287,1.71 -6.451,4.455 -7.421,6.029c-0.97,1.574 -5.491,10.281 -5.491,10.281c0,0 -4.944,-4.223 -7.091,-5.205c-2.149,-0.981 -4.461,-3.162 -6.293,-4.279c-1.832,-1.118 -1.446,-1.631 -6.701,-2.602"/><path d="M335.963,74.972c0,0 -3.815,4.36 -6.066,3.943c-2.252,-0.416 -4.324,3.973 -4.324,3.973c0,0 1.971,-2.265 4.487,-1.703c2.516,0.562 10.014,-5.355 10.014,-5.355l-4.111,-0.858Z"/><path d="M432.846,58.991c0,0 3.132,3.013 6.35,2.926c3.219,-0.086 6.342,-0.191 7.2,0.942c0.858,1.132 4.434,3.838 4.434,3.838c0,0 -2.502,-2.299 -3.028,-4.4c-0.525,-2.1 -1.255,-3.403 -2.415,-3.423c-1.161,-0.019 -7.619,1.334 -8.966,-0.042c-1.349,-1.377 -3.575,0.159 -3.575,0.159"/><path d="M372.605,152.94c0,0 24.148,-2.546 31.271,0.912c7.124,3.458 -15.808,9.932 -18.2,10.269c-2.39,0.337 -13.071,-5.922 -13.071,-11.181" style="fill:#cfc492;"/><path d="M381.354,127.932c2.788,3.956 6.063,5.676 9.695,7.066l-0.184,-1.534c-3.01,-0.455 -6.321,-2.742 -9.511,-5.532" style="fill:#fff;"/><path d="M294.373,219.006c22.957,5.611 56.145,10.49 85.817,6.597c20.943,-2.748 40.096,-9.871 52.465,-24.234c-21.306,45.097 -120.099,29.205 -138.282,17.637" style="fill-rule:nonzero;"/><path d="M292.431,235.394c0.348,0.738 8.535,33.097 86.118,39.224c-48.423,0.636 -78.393,-12.856 -86.118,-39.224" style="fill-rule:nonzero;"/><path d="M288.886,251.095c-0.069,16.177 17.139,26.004 37.921,32.981c-20.161,0.586 -42.323,-16.269 -37.921,-32.981" style="fill-rule:nonzero;"/><path d="M497.208,273.785c0,0 6.422,-2.192 12.841,-1.096c6.421,1.096 8.926,0 15.346,-1.253c6.42,-1.254 17.224,1.565 17.224,1.565c0,0 -1.252,7.987 0,13.154c1.253,5.167 2.73,11.445 3.444,12.683c0.716,1.238 2.639,4.566 2.639,4.566l-4.047,0c0,0 -3.132,-6.601 -3.758,-9.42c-0.626,-2.819 -0.784,-4.384 -0.47,-8.142c0.313,-3.758 0.313,-7.516 -0.156,-8.456c-0.47,-0.94 -1.802,-1.802 -1.802,-1.802c0,0 -6.498,-0.705 -11.666,0c-5.166,0.706 -5.636,1.175 -12.056,0.08c-6.42,-1.097 -8.455,-1.879 -17.539,-1.879"/><path d="M491.448,280.848c0,0 10.98,3.715 19.762,3.715c8.783,0 17.229,-3.039 17.229,-3.039c0,0 -0.507,0.675 1.52,5.405c2.027,4.729 -1.351,5.236 2.872,9.965c4.221,4.729 5.615,9.903 5.615,9.903l-5.953,2.765c0,0 2.196,-3.209 0,-6.081c-2.196,-2.872 -4.73,-3.715 -4.898,-5.574c-0.169,-1.858 1.013,-5.405 -0.169,-8.276c-1.183,-2.872 -1.183,-3.886 -1.183,-3.886c0,0 -5.912,2.048 -9.627,2.038c-3.716,-0.01 -6.757,-0.347 -8.446,-0.854c-1.689,-0.507 -16.722,-6.081 -16.722,-6.081"/><path d="M517.878,322.951c0,0 -1.408,-1.408 -1.252,-6.105c0.156,-4.698 2.661,-7.517 0,-11.117c-2.662,-3.603 -2.192,-8.3 -2.192,-8.3c0,0 -8.298,1.722 -11.587,0.94c-3.289,-0.783 -7.831,-0.628 -10.962,0c-3.131,0.626 -8.94,3.743 -8.94,3.743c0,0 3.616,-0.798 9.723,0c6.107,0.797 7.986,0.954 10.962,0.014c2.975,-0.938 7.829,-0.469 7.829,-0.469c0,0 0.313,2.192 1.722,4.697c1.409,2.506 1.253,5.794 -0.157,8.612c-1.409,2.82 -0.156,11.119 -0.156,11.119l5.01,-3.134Z"/><path d="M472.469,219.918c0,0 1.252,-2.191 6.263,-3.6c5.011,-1.409 8.769,0.782 12.057,-5.011c3.289,-5.794 10.022,-8.143 13.623,-8.925c3.602,-0.783 11.513,-8.926 11.513,-8.926l3.515,6.666c0,0 -3.283,4.608 -10.017,5.704c-6.734,1.097 -8.612,1.253 -11.43,4.384c-2.819,3.132 -2.663,5.011 -10.179,7.36c-7.516,2.348 -0.96,-2.505 -15.345,2.348"/><path d="M476.658,231.022c0,0 6.772,2.207 10.843,0.171c4.071,-2.036 8.456,-4.384 10.334,-7.359c1.88,-2.976 4.072,-6.264 6.42,-7.203c2.35,-0.94 12.997,-1.096 14.563,-1.253c1.566,-0.157 -4.711,1.262 -9.022,3.229c-4.312,1.966 -5.802,2.124 -7.605,5.427c-1.802,3.304 -5.879,5.823 -7.76,7.081c-1.882,1.259 -2.43,2.753 -5.409,3.933c-2.979,1.181 -9.406,0.393 -9.406,0.393c0,0 -3.215,-1.101 -2.958,-4.419"/><path d="M477.166,146.95c-0.347,1.105 0,6.734 0.783,14.093c0.783,7.359 1.097,9.865 0,12.057c-1.097,2.192 -3.131,7.046 -3.131,7.046c0,0 -7.203,11.431 -10.491,12.683c-3.289,1.254 -6.642,7.83 -6.642,7.83c0,0 4.998,-5.337 7.507,-5.809c2.508,-0.472 9.783,-5.935 10.878,-7.501c1.096,-1.566 2.662,-7.36 4.698,-10.334c2.035,-2.975 1.722,-5.794 1.41,-8.613c-0.314,-2.818 2.216,-10.464 3.691,-11.73c1.475,-1.266 -4.311,-9.907 -8.703,-9.722"/><path d="M292.043,97.838c0,0 -8.793,4.959 -15.692,9.036c-6.899,4.076 -4.39,6.898 -8.78,15.051c-4.39,8.152 -6.898,8.778 -11.601,10.974c-4.703,2.195 -5.644,5.644 -5.644,5.644c0,0 3.236,-3.024 7.308,-3.337c4.071,-0.313 11.728,-5.01 13.066,-8.456c1.339,-3.444 3.531,-10.334 8.385,-12.527c4.855,-2.191 9.13,-0.995 10.805,-2.661c1.675,-1.667 14.562,-10.648 16.597,-10.491c2.036,0.156 -8.917,-4.987 -14.444,-3.233"/><path d="M198.13,144.445c0.935,0.991 10.179,1.722 14.094,5.011c3.914,3.288 3.914,8.925 9.394,13.466c5.481,4.541 6.107,3.915 11.118,5.794c5.011,1.879 10.334,8.612 10.648,10.021c0.313,1.409 1.096,2.348 1.096,2.348c0,0 -1.566,-9.238 -5.794,-12.84c-4.228,-3.601 -7.202,-3.444 -9.865,-5.166c-2.661,-1.723 -5.419,-2.098 -6.263,-5.481c-0.844,-3.384 -0.47,-9.082 -2.506,-10.805c-2.036,-1.722 -4.227,-2.662 -4.227,-2.662l-6.674,-6.674c0,0 -7.576,2.76 -11.021,6.988"/><path d="M213.319,158.079c0,0 1.879,9.227 6.107,11.576c4.228,2.349 13.153,5.637 15.503,7.36c2.348,1.722 6.419,11.587 6.419,11.587l-6.419,2.036c0,0 0.156,-6.42 -3.445,-10.022c-3.602,-3.601 -11.432,-5.794 -13.468,-7.986c-2.035,-2.192 -3.6,-3.601 -4.697,-14.551"/><path d="M173.703,150.395l-0.783,0c0,0 -7.516,6.889 -7.046,9.552c0.47,2.662 -1.253,3.445 2.662,9.239c3.914,5.794 2.819,8.298 3.131,10.334c0.314,2.035 -2.504,-7.203 -6.419,-10.805c-3.915,-3.601 -4.698,-5.793 -4.541,-8.298c0.156,-2.506 5.01,-4.699 5.01,-7.986c0,-3.289 -1.879,-11.901 -1.879,-11.901c0,0 9.354,7.244 9.865,9.865"/><path d="M148.649,135.989c-0.02,1.068 0.314,11.744 -2.818,15.502c-3.131,3.758 -4.385,8.299 -2.662,13.31c1.723,5.011 2.662,11.117 2.035,14.092c-0.626,2.976 -5.48,7.204 -5.48,7.204c0,0 6.89,-2.505 7.986,-7.986c1.096,-5.481 -2.192,-11.901 -1.723,-15.189c0.47,-3.289 -1.878,-5.167 2.193,-7.36c4.071,-2.192 5.48,-5.481 5.48,-7.986c0,-2.505 4.228,-10.021 4.228,-10.021c0,0 -3.132,-1.722 -9.239,-1.566"/><path d="M126.727,135.832c-0.192,-1.464 -1.409,9.552 0.94,13.78c2.349,4.228 2.662,10.648 6.42,14.562c3.758,3.915 5.95,7.986 5.95,10.335c0,2.349 -0.939,6.264 -0.939,6.264c0,0 4.228,-5.637 2.192,-11.118c-2.035,-5.481 -6.04,-8.746 -7.247,-11.419c-1.209,-2.673 -3.558,-9.251 -3.558,-10.973c0,-1.722 -0.156,-1.879 1.096,-5.011c1.253,-3.131 3.446,-6.42 3.446,-6.42l-8.3,0Z" style="stroke:#000;stroke-width:0.5px;"/><path d="M18.371,131.883c1.349,-0.843 3.144,-2.457 4.352,-3.462c2.714,-2.258 5.393,-4.562 8.064,-6.871c4.363,-3.774 8.705,-7.577 13.021,-11.405l4.875,-4.322l1.632,6.308c0.825,3.191 2.682,10.339 1.388,13.25c-0.738,1.66 -2.023,3.656 -2.956,5.232c-1.824,3.083 -3.696,6.143 -5.617,9.166c-1.977,3.113 -4.026,6.261 -6.235,9.215c-1.725,2.306 -4.258,5.843 -7.526,5.487c-3.534,-0.385 -7.132,-5.595 -8.981,-8.332c-1.284,-1.902 -2.561,-3.982 -3.519,-6.069c-1.116,-2.431 -1.94,-5.493 0.476,-7.543c0.379,-0.323 0.649,-0.495 1.026,-0.654"/><path d="M46.454,113.13c0,0 -24.427,21.659 -26.416,22.382c-1.988,0.723 7.176,14.723 9.762,15.005c2.586,0.281 17.536,-25.128 18.259,-26.755c0.724,-1.628 -1.605,-10.632 -1.605,-10.632" style="fill:#ed8c0e;"/><path d="M31.96,194.893c0.016,-1.946 0.516,-3.95 1.577,-5.594c1.319,-2.045 3.634,-3.496 6.138,-2.772c1.579,0.456 2.695,1.65 3.228,3.145c0.631,0.898 1.889,2.139 2.597,2.887c1.731,1.832 3.487,3.638 5.201,5.485c2.07,2.23 4.227,4.609 5.967,7.105c1.81,2.595 3.604,6.194 1.375,9.127c-1.717,2.259 -3.275,5.515 -6.375,5.914c-0.907,0.117 -1.81,-0.024 -2.649,-0.385c-3.918,-1.679 -13.539,-4.797 -15.714,-8.213c-1.918,-3.015 -1.515,-12.791 -1.345,-16.699"/><path d="M35.947,194.989c0,0 -0.542,12.474 0.723,14.463c1.265,1.988 12.655,6.145 13.92,6.688c1.266,0.542 1.865,-1.102 4.278,-4.277c2.413,-3.175 -15.125,-18.502 -15.667,-20.67c-0.542,-2.17 -3.254,0 -3.254,3.796" style="fill:#ed8c0e;"/><path d="M64.74,104.449c-1.61,0.803 -5.891,5.373 -7.226,6.747c-1.844,1.897 -3.695,3.837 -5.649,5.619c-1.731,1.58 -3.994,3.541 -6.471,3.506c-4.251,-0.063 -6.338,-4.683 -7.112,-8.227c-0.779,-3.554 -0.825,-8.649 3.049,-10.457c0.613,-0.325 1.513,-1.116 2.058,-1.565c1.252,-1.032 2.48,-2.092 3.732,-3.122c2.705,-2.226 7.042,-5.884 10.764,-5.296c3.518,0.555 7.184,0.915 10.732,1.289l5.088,0.536l-1.762,4.803c-1.104,3.011 -4.242,5.237 -7.203,6.167"/><path d="M68.199,96.909c0,0 -7.827,-0.825 -10.936,-1.316c-3.108,-0.491 -11.616,8.432 -14.231,9.652c-2.615,1.219 -0.478,11.045 2.42,11.088c2.899,0.043 14.265,-14.524 18.028,-15.669c3.762,-1.145 4.719,-3.755 4.719,-3.755" style="fill:#ed8c0e;"/><path d="M95.903,225.669c37.388,0 67.881,-30.493 67.881,-67.881c0,-37.388 -30.493,-67.883 -67.881,-67.883c-37.387,0 -67.881,30.495 -67.881,67.883c0,37.388 30.494,67.881 67.881,67.881"/><path d="M95.902,93.894c35.282,0 63.895,28.612 63.895,63.894c0,35.281 -28.613,63.893 -63.895,63.893c-35.281,0 -63.893,-28.612 -63.893,-63.893c0,-35.282 28.612,-63.894 63.893,-63.894" style="fill:#eb7829;"/><g><clipPath id="_clip20"><path d="M32.009,157.788c0,35.281 28.612,63.893 63.893,63.893c35.282,0 63.895,-28.612 63.895,-63.893c0,-35.282 -28.613,-63.895 -63.895,-63.895c-35.281,0 -63.893,28.613 -63.893,63.895Z"/></clipPath><g clip-path="url(#_clip20)"><path d="M152.114,189.198c-11.086,19.645 -32.149,32.913 -56.309,32.913c-35.679,0 -64.613,-28.934 -64.613,-64.613c0,-15.818 5.69,-30.308 15.13,-41.54c-0.32,2.769 -0.489,5.584 -0.489,8.438c0,40.248 32.64,72.888 72.889,72.888c12.033,0 23.387,-2.919 33.392,-8.086" style="fill:#cc6d22;"/><path d="M99.562,96.863c19.948,0.514 36.138,10.44 36.138,20.994c0,10.554 -16.184,19.384 -36.138,19.113c-43.402,-0.59 -52.042,-41.452 0,-40.107" style="fill:#f9a058;"/><path d="M129.948,118.35l0,3.793c-19.175,13.363 -49.563,39.756 -45.697,65.183c5.63,0.914 11.719,1.295 18.269,0.942c10.853,-0.584 19.913,-1.894 27.428,-3.558l0,3.161c-7.566,1.648 -16.582,2.936 -27.27,3.511c-6.302,0.339 -12.187,0.024 -17.664,-0.776c5.348,16.605 22.902,22.624 34.573,24.166c2.835,0.375 5.311,0.485 7.178,0.418c1.611,-0.058 2.603,-0.184 2.796,-0.335c0.144,-0.114 0.204,0.026 0.207,0.264l0.18,0.229l-0.18,-0.229c0.003,0.321 -0.095,0.823 -0.219,1.119l0.399,-0.191l0,1.892c-0.81,0.193 -1.852,0.321 -3.074,0.365c-2.021,0.072 -4.678,-0.044 -7.69,-0.442c-12.841,-1.697 -32.354,-8.54 -37.592,-27.829c-2.531,-0.476 -4.969,-1.055 -7.313,-1.719c1.367,19.158 6.203,33.169 9.473,36.208l-2.125,2.283c-3.601,-3.347 -9.034,-18.732 -10.441,-39.434c-1.806,-0.589 -3.555,-1.225 -5.243,-1.901c-1.56,9.909 -5.938,17.929 -14.867,21.718l-1.209,-2.87c8.008,-3.398 11.901,-10.803 13.226,-20.052c-16.096,-7.142 -26.438,-17.683 -31.308,-22.648c-1.38,-1.408 -1.674,-2.267 -1.948,-2.267l0,-3.127c1.027,0 2.217,1.216 4.171,3.207c4.631,4.722 14.368,14.649 29.442,21.557c1.836,-23.548 -10.57,-56.589 -14.71,-67.616l-0.355,-0.947l2.919,-1.088l0.355,0.947c4.271,11.374 17.031,45.365 14.689,69.966c1.501,0.619 3.05,1.206 4.648,1.754c-0.413,-9.144 -0.025,-19.204 1.635,-29.649c3.43,-21.594 12.221,-44.92 30.438,-65.3l2.32,2.076c-17.758,19.868 -26.332,42.629 -29.681,63.712c-1.7,10.706 -2.072,20.951 -1.626,30.152c2.225,0.664 4.538,1.248 6.939,1.738c-3.152,-26.774 27.78,-53.689 47.299,-67.264c0.552,-0.383 1.095,-0.756 1.628,-1.119m0,99.589l0,-1.892l0.399,-0.191l-0.399,-0.508l0.399,0.508l1.713,-0.819c0.425,0.888 0.218,1.653 -0.571,2.273c-0.315,0.248 -0.841,0.463 -1.541,0.629m13.67,-37.149l0,3.255c-3.907,1.373 -8.442,2.686 -13.67,3.826l0,-3.161c5.298,-1.174 9.824,-2.524 13.67,-3.92m-0.555,-68.909c0.176,0.149 0.381,0.381 0.555,0.618l0,0.972c-0.429,0.262 -1.505,0.954 -3.265,1.973c-2.598,1.505 -6.156,3.743 -10.25,6.59l-0.155,0.109l0,-3.793c3.466,-2.357 6.513,-4.257 8.842,-5.606c2.114,-1.223 3.8,-2.006 4.828,-2.307l0,1.444l-0.555,0Zm0.555,72.164l0,-3.255c14.027,-5.092 18.975,-10.8 19,-10.827l2.32,2.076c-0.026,0.03 -5.637,6.495 -21.32,12.006m0,-71.546c0.12,0.162 0.224,0.327 0.294,0.469l0.263,-1.087l-0.557,0l0,-1.444c0.426,-0.125 0.739,-0.167 0.923,-0.124l0.012,0.007c0.826,0.2 1.24,0.711 1.24,1.561l-1.618,0l-0.256,1.1c0.117,0.245 0.124,0.414 -0.086,0.37l0,0.003c-0.013,-0.002 -0.083,0.037 -0.215,0.117l0,-0.972Z" style="fill-rule:nonzero;"/></g></g><path d="M37.618,155.431c3.523,4.81 10.117,15.086 8.358,21.117c-1.7,5.826 -12.17,11.7 -17.462,14.266l-2.529,1.226l-2.005,-1.97c-2.062,-2.024 -4.14,-4.44 -5.82,-6.774c-2.311,-3.21 -4.997,-7.848 -3.092,-11.847c0.443,-0.93 1.099,-1.725 1.919,-2.348c2.272,-1.731 4.575,-4.036 6.62,-6.041c2.677,-2.622 5.321,-5.306 7.904,-8.021l3.288,-3.456l2.819,3.848Z"/><path d="M34.4,157.787c0,0 -10.575,11.116 -14.997,14.485c-4.423,3.37 7.371,14.953 7.371,14.953c0,0 13.899,-6.739 15.374,-11.793c1.473,-5.055 -7.748,-17.645 -7.748,-17.645" style="fill:#ed8c0e;"/><path d="M277.607,371.217c0,0 4.297,-1.603 8.525,-0.662c4.227,0.939 1.253,2.819 11.117,5.011c9.866,2.191 7.887,0.527 12.528,1.408c4.64,0.882 4.853,1.878 7.984,3.447c3.133,1.564 9.13,4.226 8.457,3.444c-0.674,-0.784 -6.737,5.322 -6.737,5.322c0,0 -3.755,-0.625 -5.164,-2.817c-1.409,-2.192 -0.94,-4.541 -4.071,-5.48c-3.131,-0.941 -10.022,-0.297 -14.249,-1.167c-4.229,-0.871 -5.167,-2.592 -8.143,-4.628c-2.975,-2.035 -1.722,-3.759 -10.247,-3.878"/><path d="M265.149,377.757c0.738,0.623 18.164,0.315 21.296,3.445c3.131,3.132 6.42,10.022 8.769,11.43c2.348,1.411 1.735,3.541 5.16,4.719c3.423,1.178 10.259,3.131 10.259,3.131c0,0 -7.519,1.66 -11.716,0c-4.197,-1.663 -4.905,-5.719 -6.346,-6.473c-1.439,-0.756 -4.377,-6.256 -6.805,-6.647c-2.429,-0.39 -9.03,-5.377 -11.848,-3.969c-2.818,1.411 -13.181,1.262 -13.181,1.262l4.412,-6.898Z"/><path d="M334.555,265.633l5.04,-34.948l-20.414,28.856l-9.609,-3.808l5.551,-54.586l10.94,4.335l-4.537,34.976l19.394,-29.089l10.792,4.276l-5.129,34.742l20.577,-28.621l10.496,4.159l-33.196,43.632l-9.905,-3.924Z" style="fill:#007bc3;fill-rule:nonzero;"/><path d="M330.568,202.829l-2.679,20.646l11.449,-17.171l16.933,6.709l-3.127,21.179l12.544,-17.447l17.387,6.89l0.404,1.451l-37.63,49.46l-15.842,-6.277l3.058,-21.21l-12.389,17.512l-15.525,-6.151l6.292,-61.864l1.3,-0.79l17.825,7.063Zm-20.996,52.904l9.609,3.808l20.414,-28.856l-5.04,34.948l9.905,3.924l33.196,-43.632l-10.496,-4.159l-20.577,28.621l5.129,-34.742l-10.792,-4.276l-19.394,29.089l4.537,-34.976l-10.94,-4.335l-5.551,54.586Z" style="fill:#ffcb05;"/></g></svg>